/* XPM */
static char *da8158772db74187ab1e390acb68f7a86UiOVhVTF94NvhqJ[] = {
/* columns rows colors chars-per-pixel */
"50 50 214 2 ",
"   c #0D0202",
".  c #060000",
"X  c #140400",
"o  c #1B0400",
"O  c #1D0B05",
"+  c #180B08",
"@  c #1D130C",
"#  c #240B03",
"$  c #270D06",
"%  c #25130C",
"&  c #2A140C",
"*  c #2A1509",
"=  c #32150B",
"-  c #3C160B",
";  c #331A0E",
":  c #3B1A0E",
">  c #3A1407",
",  c #221612",
"<  c #251914",
"1  c #2B1913",
"2  c #291918",
"3  c #2A1612",
"4  c #341C14",
"5  c #3C1D13",
"6  c #331F1B",
"7  c #301710",
"8  c #3C2115",
"9  c #35231B",
"0  c #3C231B",
"q  c #3D281D",
"w  c #382A26",
"e  c #3E372E",
"r  c #3E3733",
"t  c #431A0D",
"y  c #4B1A07",
"u  c #521E06",
"i  c #431D12",
"p  c #54220C",
"a  c #59240D",
"s  c #442114",
"d  c #4B2415",
"f  c #44251A",
"g  c #4A261A",
"h  c #45291E",
"j  c #4B291D",
"k  c #532413",
"l  c #5A2611",
"z  c #5B2A15",
"x  c #512719",
"c  c #542B1C",
"v  c #5B2C1C",
"b  c #552813",
"n  c #5E311E",
"m  c #622D16",
"M  c #632E1B",
"N  c #623016",
"B  c #65321C",
"V  c #6A341C",
"C  c #442B22",
"Z  c #4C2C21",
"A  c #4A2721",
"S  c #542D21",
"D  c #5C2E21",
"F  c #4E3227",
"G  c #4C332B",
"H  c #46322A",
"J  c #533124",
"K  c #5D3323",
"L  c #5C392C",
"P  c #56362B",
"I  c #413933",
"U  c #4C3932",
"Y  c #433839",
"T  c #5C3E32",
"R  c #553D35",
"E  c #633524",
"W  c #6A3623",
"Q  c #643826",
"!  c #6C3A25",
"~  c #623629",
"^  c #643A2A",
"/  c #6C3C2B",
"(  c #723C25",
")  c #723E2C",
"_  c #7C3F2D",
"`  c #643E31",
"'  c #6A3E32",
"]  c #59443C",
"[  c #4B423B",
"{  c #6E412E",
"}  c #67412E",
"|  c #75422D",
" . c #7B432E",
".. c #7F492F",
"X. c #664234",
"o. c #6C4333",
"O. c #6F493A",
"+. c #65443B",
"@. c #754333",
"#. c #7B4534",
"$. c #764934",
"%. c #7D4A35",
"&. c #774739",
"*. c #74493B",
"=. c #7C4B3A",
"-. c #7A4639",
";. c #7C533F",
":. c #453F41",
">. c #5D4D4B",
",. c #554947",
"<. c #5B514F",
"1. c #5E5854",
"2. c #654D44",
"3. c #6B544E",
"4. c #66554E",
"5. c #7E5241",
"6. c #745647",
"7. c #695A55",
"8. c #76625A",
"9. c #726862",
"0. c #7D6B67",
"q. c #7E736D",
"w. c #81462E",
"e. c #824632",
"r. c #824B34",
"t. c #834D3B",
"y. c #8A4D3B",
"u. c #854B38",
"i. c #85523C",
"p. c #8A543D",
"a. c #88593F",
"s. c #875137",
"d. c #855341",
"f. c #8B5542",
"g. c #865943",
"h. c #8C5944",
"j. c #815C4B",
"k. c #8D5D49",
"l. c #915C45",
"z. c #935D4C",
"x. c #825E52",
"c. c #94624B",
"v. c #9A644D",
"b. c #956247",
"n. c #8D6452",
"m. c #946353",
"M. c #986857",
"N. c #A16B55",
"B. c #A37055",
"V. c #826A65",
"C. c #8B766C",
"Z. c #88766C",
"A. c #997B6F",
"S. c #897770",
"D. c #8C7A72",
"F. c #897E78",
"G. c #8E827C",
"H. c #9D847D",
"J. c #A4887D",
"K. c #9A8C86",
"L. c #98928C",
"P. c #A39089",
"I. c #A79C99",
"U. c #A99893",
"Y. c #B19489",
"T. c #B9A59B",
"R. c #B8ABA5",
"E. c #BEB5B4",
"W. c #C6AA9F",
"Q. c #C0AFA7",
"!. c #C0B5AF",
"~. c #C4BBB5",
"^. c #C7B9B6",
"/. c #D2C5BF",
"(. c #D6CECC",
"). c #E8D4CB",
"_. c #E5D8D5",
"`. c #F0DCD4",
"'. c #E7CCC3",
"]. c #EEE0D7",
"[. c #F2E8DF",
"{. c #E7DFE2",
"}. c #EBE8E7",
"|. c #F4EDEC",
" X c #FBEFEB",
".X c #F6E9E4",
"XX c #F5F2EE",
"oX c #FDF3EC",
"OX c #FFF9EE",
"+X c #EDECF1",
"@X c #F5F3F4",
"#X c #FCF5F3",
"$X c #F6F8F6",
"%X c #FEFBF5",
"&X c #F5F5F9",
"*X c #FDF6FA",
"=X c #F5FBFB",
"-X c #FFFDFB",
";X c #FFFFFB",
":X c #FFFFFB",
">X c #FDFDF9",
",X c #FEFAFE",
"<X c #FBFDFF",
"1X c #FFFFFD",
"2X c #FEFFFD",
"3X c #FCFDFF",
"4X c #FDFDFF",
"5X c #FFFDFF",
"6X c #FCFFFF",
"7X c #FFFEFF",
"8X c #FEFFFF",
"9X c white",
"0X c #FEFDFD",
"qX c #FEFEFD",
/* pixels */
"9X9X9X9X9X9X9X9X9X9X9X9X9X9X9X9X9X9X9X9X9X9X;X;X;X;X;X;X;X;X9X9X9X9X9X9X9X9X9X9X9X9X9X9X9X;X;X;X9X9X",
"9X9X9X9X9X9X9X9X9X9X9X9X9X9X9X9X9X9X9X9X9X9X9X;X;X;X;X;X;X9X9X9X9X9X9X9X9X9X9X9X9X9X9X9X9X;X;X;X9X9X",
"9X9X9X9X9X9X9X9X9X9X9X9X9X9X9X9X9X9X9X9X9X9X9X9X9X9X9X9X9X9X9X9X9X9X9X9X9X9X9X9X9X9X9X9X9X9X9X9X9X9X",
"9X9X9X9X9X9X9X9X9X9X9X9X9X9X9X9X9X9X9X9X9X9X9X9X9X9X9X9X9X9X9X9X<X<X9X<X9X9X9X9X9X9X9X9X9X9X9X9X9X9X",
"9X9X9X9X9X9X9X9X9X9X9X9X9X9X9X9X9X9X9X9X9X9X9X9X9X9X9X9X9X9X9X9X9X9X9X9X9X9X9X9X9X9X9X9X9X9X9X9X9X9X",
"9X9X9X9X9X9X9X9X9X9X9X9X9X9X9X9X9X9X9X9X9X9X9X9X9X9X9X9X9X9X9X9X9X9X9X9X9X9X9X9X9X9X9X9X9X9X9X9X9X9X",
"9X9X9X9X9X9X9X9X9X9X9X9X9X9X9X9X9X;X9X9X9X9X9X9X9X9X9X9X9X9X9X9X;X;X;X;X;X;X;X;X;X9X9X9X9X9X9X9X9X9X",
"9X9X9X9X9X9X9X9X9X9X9X9X9X9X9X9X9X;X9X9X9X9X9X9X9X9X9X9X9X9X9X;X%X%X%X%X%X%X%X%X;X;X9X9X9X9X9X9X9X9X",
"9X9X9X9X9X9X9X9X9X9X9X9X9X9X9X9X9X;X;X9X9X9X9X9X9X+X9X9X9X-X-X#X%X%X%X%X%X%X%XOX%X;X;X-X*X9X<X9X9X9X",
"9X9X9X9X9X9X9X9X9X9X9X9X9X9X9X9X9X;X;X>X<X9X9X9X9X,X#X#XU.0.S.D.Z.S.S.Z.S.D.Z.V.Q.oX;X;X#X9X9X9X9X9X",
"9X9X9X9X9X9X9X9X9X9X9X9X9X9X9X9X-X;X9X9X9X9X9X9X@X9X%X#X2.& 5 f 4 8 8 5 8 8 ; * Z.oX%X;X|.9X&X<X9X9X",
"9X9X9X9X9X9X9X9X9X9X9X9X9X9X9X9X@X%X9X9X9X9X,X,X,X;X%XoX2.s d s f g g s d d s : A.OXoX%X;X9X9X9X9X9X",
"9X9X9X9X9X9X9X9X9X9X9X9X9X9X9X9X;X;X9X9X<X<X<X-X|.K.U.J.X.^ Q ^ / ' / Q ^ { { } j.Y.H.T.;X%X9X<X9X9X",
"9X9X9X9X9X9X9X9X9X9X9X9X9X9X9X9X9X9X<X<X9X9X9X9X#Xw 4 s ^ { ! %.#.@.) ) ) u.f.g.K j = 3.%X;X<X>X9X9X",
"9X9X9X9X9X9X9X9X9X9X9X9X9X9X9X9X9X;X<X9X9X9X@X|.-X] 5 s $.| ( w.u.e.@.(  .t.f.g.$.d : 8.#X;X>X9X9X9X",
"9X9X9X9X9X9X9X9X9X9X9X9X9X9X9X9X;X;X9X9X;X}.(.R.U.R j c $. .s.u.u.u._ ( (  .r.%.$.c s 6.R.!.E.-X9X9X",
"9X9X9X9X9X9X9X9X9X9X9X>X9X9X$X<X$X9X;X;X#X_.9 ; s K v K g.N.z.f.f.f.#.V M ( | ! E ^ o.J 4 7 R %X;X9X",
";X;X9X9X9X9X9X9X&X,X9X>X9X;X;X;X9X$X#X%X%X).P j d c k M f.M.l.f.f.t.| V B ! | @.{ ^ ^ J h C +.#X;X9X",
";X;X9X9X9X9X9X9X9X9X9X9X;X;X$XXX;X#XOX~.).T.T c ~ Q E ) t.u.%.p.i.%.@.@.| ! ! ! / Q ^ J f f ] OX;X9X",
";X;X9X9X9X9X9X9X*X,X-X9X;X;X;X;X%X X/.& q T 6.j.;.i.g.i.( a m r.u.#.t.h.i.! z z n ^ O.P = # G %X;X9X",
"9X9X9X9X9X9X9X9X,X,X*X;X%XXX%XOX%X%X`.; ; S j.5.g.g.k.i.M y a ) %.#.d.c.h./ l b K X.6.L = o H %X;X9X",
"9X9X9X9X9X9X9X9X,X-X;X;X X(.[.].`.'.W.j J K ;.d.=.%.a.i.( W ) ( @.| %.h.i.! B E ^ L X.F 7 & U %X;X9X",
"9X9X9X9X9X9X9X9X9X9X#X XK.w H q F Z L c o.K b z | %.l.h.r.a.a.! B W | %.%.| / o.^ J J h 7 % U %X;X9X",
"9X9X9X9X9X9X9X9X*X;X-X%XP.4 C h j g c ~ { E p B B i.B.v.%.a.a.B p M ! $.$.@.o./ ~ J F h & % U ;X;X9X",
"9X9X>X9X9X9X9X#X;X|.#X.XH.h 5 L S d v $.$.B l m B ..b.r.h.i.i.! v Q ! ) #.@.^ o.` f F 4 4 2 Y #X9X9X",
">X9X9X9X9X9X9X;X%XG.G U P Z S c *.@.@.%.%.| ( ( V V ( B i.h.c.$.$.t.%.@.#.@.^ ` J 5 F 0 6 + Y 9X9X9X",
"9X9X9X<X@X@X#X-X%XZ.9 h J S ~ / =.i.d.g.a.t.| V V a u a i.c.M.k.d.d.@./ ^ Q K ~ L 5 4 % 2   Y 9X9X9X",
"9X9X<X9X9X9X9X;X;XS.4 8 j d c n @.$.%.f.l.p.( V ( m l V u.g.k.k.h.h.@./ / ^ ~ ` Z h H 9 w   :.}.9X9X",
",X9X9X9X9X9X-X|.%XD.q Z ^ / | | E v Q f.z.a.u.t.i.r.%.u.| E Q =.k.h.#.^ Q K x c g # o ,._.}.{.9X9X9X",
"9X9X9X&X@X;X;X;X%XD.8 s ~ @.) B p p ! c.N.l.p.l.a.l.h.g.M k v =.m.z.&.^ E x - - : = 3 7.#X-X&X,X9X9X",
",X9X,X>X9X9X;XXX%XD.; - ~ d.t.V z v | h.c.a.i.a.t.h.i.d.M v E =.m.z.&.^ Q c i i g = o >.-X9X9X9X9X9X",
"9X9X9X9X9X}.I.4.8.T T O./ / #.r.i.i.$.! W  .a.c.a.l.i.h./ / E / / ^ v d x d i 8 5 % X 7.9X@X,X9X9X9X",
"9X9X#X#X-X%X3.; 5 L / / #.#.@.p.c.c.i.p p N h.v.c.u.d.d./ ) @.v v D d > g = C C 9 < @ 1.-X;X9X#X9X9X",
"$X;X;X;X%X#X3.- - ^ -.@.#. . .p.l.h.r.N m W i.l.z.g.h.d.@.@.@.D S K g 5 Z * 1 3 % @ . 1.%X;X9X9X9X9X",
"$X9X9X;X%X%XV.A S *.d.%.%.%. ...p.s.w.r. .%. . .| $.%.@.@.@.@.K K L f : F 4 9 9 7.R.L.~.;X#X;X9X9X9X",
"9X9X9X#X-X%XV.= g *.m.z.t. .( ( ..e.e.v.l.p.B l l ! | ^ @.=.&.' ` X.g 5 h ; % X 9.;X;X;X9X#X9X9X9X9X",
"<X<X9X9X;X X0.$ f X.m.M.t.! ( |  .w.e.N.v.f.M p z ) @./ &.5.&.o.L +.Z f 4 1 %   9.;XXX#X9X9X9X>X9X9X",
"<X=X<X9X9X#X^.H.Y.x.' ' $.=.i.r.u.e.e.l.l.p.) W Q / o./ E E K S Z F 5 4 7 3.K.F.~.;XXX;X9X9X@X9X9X9X",
"=X=X9X<X9X;X-X%X%XA.t t o.m.m.i.p.y.y.y.f.t.u.#.@.E ~ ~ d t i : 8 0 & & O K.%X%X|.;X;X;X9X-X@X9X9X9X",
"<X=X<X9X9X-X-X%X#XC.5 d *.n.M.k.f.f.z.t.l.t.d.*.5.K ^ X.g : g 5 5 6 7 %   G.%XXX;X;X;X$X$X9X#X-X9X9X",
"<X<X<X9X9X9X;X%X%XD.# f J o.o.^ @.#.@.) ) / ' ~ ~ ` S j j 8 = 5 C % 8.0.7.~.%X;X;X;X9X9X9X9X9X9X9X9X",
"<X<X<X9X9X9X;X;XoXV.o 8 = $ > s c v k y t t i - 5 5 ; 8 = 4 & 7 o + R.;X%X%X;X$X;X;X9X9X9X9X9X9X9X9X",
"9X9X9X9X9X9X;X;X;Xq.X % $ o # = J J c s i s s 5 C C q 0 & % # O 2 @ U.%XXXXXXX;X9X9X9X9X9X9X9X9X9X9X",
"9X9X9X9X9X9X9X;XXXL.[ ,.4.4.3.R h Z h 8 5 0 0 0 4 9 6 3 >.>.,.>.,.<.~.;X;X;X;X;X9X9X9X9X9X9X9X9X9X9X",
"9X9X9X9X9X9X9X9X;X;X-X-X-X-X#X^.O * & % % % % % % 2 2 w _.#X-X-X;X#X;X;XXX;X9X=X9X9X9X9X9X9X9X9X9X9X",
"9X9X9X9X9X9X<X<X}.;X9X%X-X9X#XI.X O % % % , , , < ,   + {.9X*X|.9X#X-X9X9X9X<X=X9X9X9X9X9X9X9X9X9X9X",
"9X;X9X9X9X9X<X<X<X9X9X@X,X9X,XE.w e I I e r r r r Y Y ,._.9X9X9X9X9X>X9X9X<X$X<X<X<X9X9X9X9X9X9X9X9X",
"9X;X9X9X9X9X<X9X9X$X9X9X9X@X9X@X;X;X;X;X%X%X;X9X#X9X9X*X,X9X9X9X*X9X9X$X9X<X<X<X<X9X9X9X9X9X9X9X9X9X",
"9X9X9X9X9X9X9X9X9X9X9X9X9X9X9X9X9X9X9X9X9X9X9X9X9X9X9X9X9X9X9X9X9X9X9X9X9X9X9X9X9X9X9X9X9X9X9X9X9X9X",
"9X9X9X9X9X9X9X9X9X9X9X9X9X9X9X9X9X9X9X9X9X9X9X9X9X9X9X9X9X9X9X9X9X9X9X9X9X9X9X9X9X9X9X9X9X9X9X9X9X9X"
};
