/* XPM */
static char *eaf5dd2a0bcc4b1bb41d2db880b4b926[] = {
/* columns rows colors chars-per-pixel */
"50 50 191 2 ",
"   c #00A996",
".  c #09A799",
"X  c #01AB9E",
"o  c #08AC9F",
"O  c #01B09F",
"+  c #02A7A0",
"@  c #01ABA2",
"#  c #01B2A5",
"$  c #02B6AA",
"%  c #02BBAE",
"&  c #0CBBAE",
"*  c #1EBAAF",
"=  c #01BDB3",
"-  c #09BBB3",
";  c #02BDB9",
":  c #10BAB1",
">  c #20B9A7",
",  c #22B4AA",
"<  c #23B9AC",
"1  c #21B6B0",
"2  c #24BBB4",
"3  c #24BDB8",
"4  c #00C2AC",
"5  c #00C2B5",
"6  c #0DC1B6",
"7  c #01C4BB",
"8  c #0BC5BC",
"9  c #02CABE",
"0  c #0BCABE",
"q  c #1DC3BD",
"w  c #1DC9BF",
"e  c #23C4BC",
"r  c #29C4BE",
"t  c #23C9BD",
"y  c #3BC5B8",
"u  c #03C6C1",
"i  c #0CC6C4",
"p  c #02CBC1",
"a  c #0BCCC3",
"s  c #19C3C0",
"d  c #12CCC4",
"f  c #1BCCC5",
"g  c #14CECA",
"h  c #1ECECA",
"j  c #07D1C3",
"k  c #0BD0C7",
"l  c #13D1C6",
"z  c #1FD1C3",
"x  c #1ED1CB",
"c  c #23C6C1",
"v  c #2AC4C1",
"b  c #23CBC3",
"n  c #2BCCC4",
"m  c #25CECA",
"M  c #2BCFCB",
"N  c #33CFC4",
"B  c #32CDCA",
"V  c #22D0C6",
"C  c #2BD1C7",
"Z  c #25D2CA",
"A  c #2BD2CB",
"S  c #3ED0C6",
"D  c #33D4CC",
"F  c #3CD5CB",
"G  c #33D9CD",
"H  c #3BDACB",
"J  c #33D5D1",
"K  c #3CD4D2",
"L  c #3BD8D1",
"P  c #40C8C6",
"I  c #43CDCB",
"U  c #44D0C7",
"Y  c #44D3CD",
"T  c #4BD3CC",
"R  c #42D8CF",
"E  c #4DD9CF",
"W  c #52D5CC",
"Q  c #5BDACF",
"!  c #44D6D2",
"~  c #4CD6D2",
"^  c #41D8D1",
"/  c #4CDAD4",
"(  c #53D6D0",
")  c #5AD7D3",
"_  c #54DAD4",
"`  c #5CDCD4",
"'  c #58D7DD",
"]  c #56DADA",
"[  c #5BDDDA",
"{  c #65DED5",
"}  c #6ADED7",
"|  c #64DED9",
" . c #6BDED9",
".. c #70DDD7",
"X. c #72DFDB",
"o. c #7DDEDF",
"O. c #55E2D9",
"+. c #5EE1DB",
"@. c #65E0D6",
"#. c #6AE0D7",
"$. c #65E1DA",
"%. c #6BE2DB",
"&. c #74E2DC",
"*. c #7BE3DE",
"=. c #73DFE1",
"-. c #7DDFE0",
";. c #67E4E1",
":. c #6CE4E1",
">. c #73E3E1",
",. c #7BE3E2",
"<. c #7FE3E3",
"1. c #78E5E2",
"2. c #7AE4E0",
"3. c #7DE4E1",
"4. c #7FE6E3",
"5. c #78E6E5",
"6. c #7CE4E1",
"7. c #77E8E2",
"8. c #75E8E5",
"9. c #77E8E4",
"0. c #7DE8E2",
"q. c #7DE8E2",
"w. c #85DFDD",
"e. c #83E3DF",
"r. c #80E5DF",
"t. c #81E4DF",
"y. c #84E5DE",
"u. c #86E5DF",
"i. c #85E6DF",
"p. c #85E4DE",
"a. c #8AE4DF",
"s. c #83E9DB",
"d. c #8BE8DE",
"f. c #91E7DF",
"g. c #83E1E0",
"h. c #83E3E1",
"j. c #87E3E2",
"k. c #86E0E0",
"l. c #82E5E2",
"z. c #82E4E3",
"x. c #83E6E3",
"c. c #80E4E2",
"v. c #84E4E0",
"b. c #85E5E1",
"n. c #85E5E3",
"m. c #84E4E2",
"M. c #87E7E3",
"N. c #87E6E0",
"B. c #85E5E4",
"V. c #86E6E4",
"C. c #87E7E5",
"Z. c #85E7E6",
"A. c #84E5E1",
"S. c #8AE6E3",
"D. c #8BE7E2",
"F. c #88E6E5",
"G. c #89E7E6",
"H. c #8BE7E6",
"J. c #8AE6E5",
"K. c #8CE6E6",
"L. c #8BE6E3",
"P. c #84E9E3",
"I. c #85E9E2",
"U. c #8AE9E3",
"Y. c #89E9E5",
"T. c #8BEAE4",
"R. c #8DE9E4",
"E. c #8FE9E4",
"W. c #8DE9E4",
"Q. c #87E9E8",
"!. c #8EE9E9",
"~. c #91E7E4",
"^. c #93E6E4",
"/. c #9BE6E5",
"(. c #94EAE5",
"). c #9BEAE6",
"_. c #92E6E9",
"`. c #9BE6E9",
"'. c #93EAE9",
"]. c #9CEBE9",
"[. c #96F0E4",
"{. c #A1E5E6",
"}. c #A2EBE6",
"|. c #A9EBE7",
" X c #A4E7EA",
".X c #A4ECE9",
"XX c #ABEDEA",
"oX c #B3EAED",
"OX c #A4F1EB",
"+X c #AFF0EC",
"@X c #B2F0ED",
/* pixels */
"y , < 1 1 < 2 , > > > < < , < < e t t t t t t t t t e e e e e t b b V V Z Z A Z B K K G H F N t q I ",
", . o o     O X + X X + + + + @ = = = = 5 5 = = = = = = = = = = 7 7 7 7 7 u u i k g g d f b s ; = w ",
"* X @ @ o   X X + + + + + + + @ = = = = = = = = = = = = = = = = 7 7 7 7 7 7 9 9 a d g d f M d ; = t ",
"e % % n Y S S I U U U T T T W W ) ) ) _ _ _ _ _ _ ( ( ( ( W ( ( _ _ _ _ _ _ ( ( _ [ [ _ _ ] D = = b ",
"v % % ! :.;.;.;.%.%.&.&.q.I.T.T.^.^.W.W.W.U.U.L.v.v.v.v.v.v.v.v.L.L.L.L.v.i.i.i.g.k.v.3.*.7.T & = b ",
"v = % !  .{ ` | { | }  .X.*.g.k.v.e.r.*.*.*.*.*.*.*.&.&.&.&.&.*.r.r.*.*.*.*.&.&.*.o.2.&.*.5.~ - = v ",
"v 5 % / <.*.&.*.>.2.2.3.4.Z.L.L.K.L.L.L.Z.L.L.L.Z.v.x.x.x.x.v.Z.Z.Z.Z.Z.x.x.3.2.9.>.:.$.} %.^ = = b ",
"c 5 5 [ '.'.W._.~.^.W.D.D.(.(.~.D.D.D.D.W.W.D.D.D.a.a.a.a.a.a.L.L.L.L.v.g.g.*.*...} | @.{ | F = 5 b ",
"t 7 5 [ (.D.W.U.^.K.K.W.W.'.^.^.'.W.D.L.D.D.D.D.L.v.v.v.e.k.L.L.W.!.L.k.v.x.*.2.%.} } [ _ ` S = = c ",
"b 7 5 +.(.D.!.T.W.K.K.T.W.W.W.^.K.K.W.~.(.(.(.~.(.D.L.T.v.v.v.L.v.L.v.k.v.x.*.2.>.&.X.%.$.%.T ; 5 c ",
"b 7 5 +.).W.(.W.'.W.T.T.T.W.W.(.K.W.(.).].].(.(.'.(.(.W.L.i.v.v.x.x.g.g.x.x.*.2.<.*.e.2.7.q.( = 5 b ",
"V 7 5 +.).(.(.W.(.W.W.W.W.L.K.W.W.(.(.).].).).(.(.~.~.D.L.i.i.e.*.x.3.3.x.3.*.2.2.*.g.<.2.I._ = 5 b ",
"V 7 5 $.].(.^.W.^.~.W.W.D.L.L.D.(.(.(./././.(.~.(.^.~.~.D.L.L.i.*.3.3.*.3.*.*.*.&.&.*.*.&.*.( = 5 b ",
"b 7 5 $.].(.^.D.^.^.(.(.W.a.a.L.'.'.(.(.~.~.~.(.(.~.(.(.W.W.W.L.*.3.*.*.*.*.*.*.&.&.&.>.&.*.E = 5 b ",
"b 7 5 $.}.(.(.D.W.W.W.W.L.i.i.I.`.`.(.(.D.D.(.(.~.W.(.(.W.W.W.L.r.x.*.*.*.*.*.*.&.&.&.>.&.*.~ 7 5 b ",
"t 7 5 $.}.(.(.D.U.U.U.U.i.*.*.r.`./.(.W.U.D.D.^.W.D.W.D.D.K.K.k.x.x.3.*.3.3.*.2.<.&.&.>.&.*.( 7 7 b ",
"b 7 5 | }.)./.f.(.*.{ $.#.} #.%.x.g.g.g.e.e.i.v.v.i.i.i.i.v.v.L.v.v.v.L.a.a.L.L.r.*.2.*.*.x._ 5 7 b ",
"b 7 5 $..X).(.D.(.*.{ { } } } %.x.3.3.x.x.x.v.i.i.i.i.i.i.i.i.i.x.v.v.i.i.i.i.v.r.*.3.*.*.x._ 5 7 b ",
"b 7 5 $.}.(.(.d.W.*.%.#.%.....&.3.3.3.3.x.x.v.v.i.i.v.v.v.i.i.i.x.r.i.i.i.i.i.i.r.*.<.*.&.3._ 5 5 b ",
"b 7 5 @.].~.D.i.L.r.*.2.2.3.<.*.&.&.&.*.3.*.e.g.i.i.i.i.p.p.p.p.v.i.i.i.i.i.i.i.r.*.<.&.&.&.~ 5 5 b ",
"b 7 5 { ).D.L.y.k.v.x.x.x.x.x.<.&.&.*.3.x.x.x.v.v.v.v.v.v.L.L.k.e.v.v.L.L.L.v.v.x.<.<.&.%.&./ 5 5 b ",
"b 7 5 { ].(.K.v.L.k.k.g.<.2.*.*.&.&.&.2.3.3.3.3.3.3.x.x.x.x.x.x.*.g.v.v.v.v.v.v.*.*.<.&.@.%.~ 5 5 b ",
"b 7 5 | ].(.'.D.W.L.k.g.*.&.%.%.{ } } #.%. . . . . . ...&.&.&.&.&.*.*.3.x.x.x.x.*.&.*.#.` $.Y = = b ",
"b 7 5 | }.(./.D.T.Z.v.3.&.#.@.$.$.@.@.$.$.$.$.#.@.@.@.#.#.%.%.&.&.&.&.2.*.3.3.3.&.&.&.} ` { R = = c ",
"b 7 5 | ].~.(.^.D.i.x.3.&.#.#.#.#.#.$.$.$.$.$.#.$.$.$.#.#.%.%.%.&.&.&.&.&.2.3.3.*.%.>.%.` [ F % 5 c ",
"b 7 7 $..X(.`.)..X^.k.k.L.(.'.L.} } } | | } } } } } } } #. .%.%.}  . . . .......@.) [ _ F F n $ = e ",
"f 7 7 $..X^.].)..XW.*.*.^..X.X'.| $.$.$.$.$.$.$.$.$.$.$.$.$.$.$.$.$.$.$.$.$.$.$.` _ ) / F F B - % e ",
"f 7 7 | .X^.]..X}.T.7.&.K.].}.~.} } } #.#.#.#.#.#.#.#.#.{ } } } } } } } } } #.#.` _ ) / F R M % = t ",
"b 7 7 $..X^.}..XXX^.3.x.~./.}.(.'.!.!.W.W.W.!.!.!.!.!.!.'.'.'.'.'.'.'.'.(.(.(.(.K.3.x.<.X.2./ % 5 c ",
"b 7 7 | .X^.}..XXX~.*.3.K.).).(.`.`.(.(.(.(.(.`.`.`.).`.`.`.`.`.}.].].].].].].].(.I.Y.L.k.Q.O.4 5 b ",
"b 7 5 | .X/.}.|.}.f.e.v.K.(.(.(.(.(.(.~.~.(.(.(.).).).).(.(.(.(.).).(.).).).).).^.L.D.a.w.Z._ % 5 c ",
"b 7 7 $.OX]..X|.|.}.].`.`.}.XX{.].].].).].}.}.}.).].].].].].].].).).).).).).).).D.I.I.r.#.%.T $ = e ",
"b 7 7 %.XX|.XXXXXXXXXXXXXX.X.X.X}.}..X.X.X.X.X|..X}..X].].].].).{.).).}.}.].]. XU.r.L.*.{ ;.Y # % e ",
"b 7 7 %.XX|.XXXXXXXXXXXXXXXX}.}.}.}.}..X.X.X.X}.}.}.}..X].).}.]./.).(.]..X].'.].`.^.'.x.} ;.Y $ $ e ",
"V 7 7 :.+XXXXXXXXXXXXXXXXXXX.X.X.X.X.X.X.X.X.X.X.X}.}.].].].].].).(.(.~.~.I.&.2.#.` { ( F ^ n # $ 3 ",
"V 7 7 :.@XXXXXXXXXXXXXXXXXXXXXXXXXXXXXXXXX.X.X.X.X}.}.].].].].].).(.a.a.p...) ` / H H C z Z w # # 3 ",
"V 7 7 :.@XXXXX.XXXXXXXXXXXXXXXXXXXXXXXXXXXXX.X.X.X}.].].).].].).}..XW.L._.>.O.$.] K K K Z Z q # # 2 ",
"V 7 7 :.@XXXXX.X.X.X.X}..X.X.XXXXXXXXXXXXX.X.X.X].].).).^.(.(.~.L.k.%.{  ./ A L D f h h d l 6 @ # 2 ",
"b 7 7 >.@XXX.X.X}.}.].].}.}..X.XXXXXXXXXXX.X}.].).).).(.~.D.L.p.&.*.` / _ A 0 f j 9 9 u 9 p 5 $ # 2 ",
"V 7 7 :.@XXX.X].}.}.].]..X.X.X.X|.XXXXXXXX.X.X].].).).'.(.K.L.x.x.g.[ / ' J d m d p a i p p 5 # # 2 ",
"x u u :.oXXX].(./.).(.(.).}..X|.|.|.|..X.X}.}.].{././.W.x.L.Z.{ +.$./ K K A x f l a a p p a 8 # # 3 ",
"C 5 5 #.XX}.).[.(.(.'.(.`.]..X].].].].].].`.`.).'.D.L.Y.*.*.2._ R ! D A C b l f d d d a a a 6 @ O 2 ",
"n 7 5 %.+X}. X/././.^.^.].}.}.].}.}.}.}.}.}.].].].^.^.!.*.o.2._ R ! D A D m Z Z f d d d a d 6 # # 3 ",
"f p 7 ;..X]..X/.(.(.L.D.(.'.(.(././.(.(.(.(.(.W.W.v.L.W.*.-.2./ ! ! C V m f d f d 8 8 0 0 a 6 # @ 2 ",
"x p 7 | `.~.D.s.Q.3.2.&.2.x.3.3.g.g.x.g.3.2.2.*.&.&.*.&.#.%.%.H D D f 0 0 7 7 7 9 5 5 5 5 7 % X X 2 ",
"Z 7 ;  .XX]./.(.(.D.p.p.a.a.a.d.d.d.d.d.L.a.p.p.g.4.x.3.&.,.>.~ J J f a d 9 9 7 7 5 5 5 5 = % + X 2 ",
"t 5 7 _ <.9.=.2.&.%.{ { } } #.#. . .#.#.#.{ { { | | [ [ [ ' ' K Z Z d a d 8 7 7 7 7 5 5 5 5 = # @ 2 ",
"v u 9 7 : 7 = 7 7 7 7 7 7 ; ; 7 ; 7 7 7 7 7 7 7 - 5 % 5 9 8 8 9 5 0 7 7 8 7 7 7 u 7 7 5 = 7 5 % % r ",
"t 5 5 5 5 = 5 = 5 5 5 5 5 5 = = = = 5 7 7 5 5 5 5 5 5 7 7 7 7 7 5 7 7 7 7 7 7 7 7 5 5 5 = = = = % q ",
"I w b b b t b b b b b b b b c b b b b b b b b b b b b b m Z m m b b b b b b b b b b b b c c t e q P "
};
