/* XPM */
static char *d9e65347f72d4869a2cbab7ed98b5712DezcYByI4FaR0oXy[] = {
/* columns rows colors chars-per-pixel */
"50 50 191 2 ",
"   c #2DA247",
".  c #27AA45",
"X  c #28AA46",
"o  c #2CAD4A",
"O  c #31AC4C",
"+  c #24B446",
"@  c #26B549",
"#  c #2CB44B",
"$  c #27BB4D",
"%  c #2BBA4C",
"&  c #32B54D",
"*  c #30BB4F",
"=  c #2EBB53",
"-  c #2DBA5A",
";  c #34B553",
":  c #39B554",
">  c #33BB54",
",  c #3BBB56",
"<  c #35B559",
"1  c #33BC59",
"2  c #3BBC5C",
"3  c #3CB661",
"4  c #3BBD60",
"5  c #42BC57",
"6  c #43BB5D",
"7  c #40BA67",
"8  c #49BE65",
"9  c #2DC355",
"0  c #2EC659",
"q  c #34C355",
"w  c #39C757",
"e  c #35C45A",
"r  c #3AC55C",
"t  c #35CA5B",
"y  c #3ACB5D",
"u  c #39D15F",
"i  c #37C263",
"p  c #3DC462",
"a  c #36CE60",
"s  c #3DCD62",
"d  c #3FCB6B",
"f  c #3CD264",
"g  c #3DDA67",
"h  c #3ED669",
"j  c #3ED868",
"k  c #41C35F",
"l  c #42C463",
"z  c #42CD65",
"x  c #49CA66",
"c  c #45C669",
"v  c #43CC6A",
"b  c #4BCB6D",
"n  c #4BC264",
"m  c #50C26A",
"M  c #51CB6F",
"N  c #42D265",
"B  c #42D966",
"V  c #44D56A",
"C  c #4AD46D",
"Z  c #44D96D",
"A  c #4ADA6E",
"S  c #50D96F",
"D  c #4CC372",
"F  c #47CE70",
"G  c #4DCD72",
"H  c #53CD75",
"J  c #4CD673",
"K  c #47DC72",
"L  c #4CDB73",
"P  c #4DD67B",
"I  c #4DDC7A",
"U  c #52D474",
"Y  c #5AD477",
"T  c #52DC75",
"R  c #55D679",
"E  c #5BD57A",
"W  c #53DD7A",
"Q  c #5BDC7D",
"!  c #61D37C",
"~  c #44E26D",
"^  c #49E16E",
"/  c #46E374",
"(  c #4CE275",
")  c #4DE47A",
"_  c #4CEA73",
"`  c #51E276",
"'  c #53E37C",
"]  c #5AE47E",
"[  c #54EA7D",
"{  c #5AE97F",
"}  c #60E47F",
"|  c #53DD82",
" . c #5BDD81",
".. c #67D280",
"X. c #63DC83",
"o. c #69DE85",
"O. c #65DE89",
"+. c #69DC8C",
"@. c #70DC91",
"#. c #56E381",
"$. c #5CE483",
"%. c #56EA81",
"&. c #5CEA84",
"*. c #5EE589",
"=. c #5EEA8A",
"-. c #5FF18B",
";. c #62E384",
":. c #69E587",
">. c #62EA85",
",. c #69EE86",
"<. c #64E58A",
"1. c #6CE48C",
"2. c #64EB8B",
"3. c #6BEB8D",
"4. c #70E58D",
"5. c #71E98D",
"6. c #61F086",
"7. c #64F18A",
"8. c #6BF38C",
"9. c #67E790",
"0. c #6FE491",
"q. c #67EE92",
"w. c #6DEB92",
"e. c #74E594",
"r. c #79E596",
"t. c #73EB93",
"y. c #79EA94",
"u. c #75E499",
"i. c #7BE59B",
"p. c #76EC9B",
"a. c #7BEB9C",
"s. c #67F191",
"d. c #6DF192",
"f. c #73F295",
"g. c #79F296",
"h. c #75F699",
"j. c #7CF49C",
"k. c #7CFA9D",
"l. c #7CE7A1",
"z. c #7CECA3",
"x. c #77F1A1",
"c. c #7CF2A1",
"v. c #7DFCA1",
"b. c #83EB9E",
"n. c #82F39E",
"m. c #80F89F",
"M. c #84ECA3",
"N. c #8BECA5",
"B. c #84EDA9",
"V. c #8CEBAA",
"C. c #91ECA7",
"Z. c #99E0A8",
"A. c #92ECAC",
"S. c #9AEBAC",
"D. c #84F3A4",
"F. c #8BF2A6",
"G. c #83FCA4",
"H. c #89FBA6",
"J. c #84F2AA",
"K. c #8FF7AC",
"L. c #8CF4AA",
"P. c #86FFA9",
"I. c #8DFFAE",
"U. c #8CFCAB",
"Y. c #91F1AA",
"T. c #92F5AD",
"R. c #94F4AC",
"E. c #94F4AB",
"W. c #98F3AE",
"Q. c #9CF2AE",
"!. c #92F9AB",
"~. c #95EFB1",
"^. c #8FF4B4",
"/. c #96F0B2",
"(. c #94FBB1",
"). c #9EFBB5",
"_. c #9BFEB4",
"`. c #93F7B9",
"'. c #9DF6BC",
"]. c #91FAB8",
"[. c #9DF3B2",
"{. c #A3E8AF",
"}. c #A3EDB2",
"|. c #ABEEB8",
" X c #A2F5B1",
".X c #A2FCB6",
"XX c #A2F3B9",
"oX c #A1FDB9",
"OX c #ABF4BD",
"+X c #9FFFC2",
"@X c #B9FAC4",
/* pixels */
"@X{.}.Q.W.(.F.J.J.z.a.a.j.h.8.,.b D D L.L.T.).W.W.E.F.H.E c b <.F.A.~./.A.~./.V./.N.N.B.B.B.B.l.M.b.",
"|.Z.S.A.N.L.M.c.z.z.u.0.w.f.,.} 2 7 D D.L.L.Y.N.Y.L.K.H.b ; r ;.L.N.V.V.N.N.V.N.M.i.i.i.i.a.z.u.u.r.",
"OXS.[.R.F.G.c.c.x.x.p.w.w.d.8.>.< 3 D a.L.K.T.F.M.D.H.G.G < i $.G.a.M.F.B.M.J.J.M.i.i.a.p.j.x.e.p.a.",
"XXA.A.a.1.1.;.;.;.<.<.$.Q U U R 3.1.1.D.D.a.r.e.a.e.t.w.Q T L T U H X.t.t.1.1.1.1.X.;.<.<.<.$.U H H ",
"'.V.B.0.R W L I I P P R F 4 r b I.P.G.D.D.t.+.O.<.X.;.Q $.2.&.z = 1 C >.>.] Q U Q U R Q ] ] J r 2 2 ",
"+X^.J.w.Q ' ) ) [ K J I J c b R m.j.G.p.v.f.<.<. .$.<.` ] &.&.s q y L &.&.{ ] ` ' T ` { { { L e s p ",
"`.B.c.<.W ) / ~ / Z d d P $.<.;.j.g.m.:.f.<.R W #.' &.` [ ` [ V f f B N f A [ ` ` A L ( ` ` Z $ = = ",
"^.z.x.<.` [ ~ B ~ V i i  .G.U.j.t.4.p.E 3.>.I [ ' Z ( K ) Z ( K B g f 9 $ h [ [ [ / L A ( ( N $ % % ",
"].J.G.$.` _ _ ~ ^ N 2 2 E j.U.j.y.y.1.;.;.$.' ) ) ) ( ( ( ( I K Z j a 9 t A [ %.( [ ( ( ( ` K @ # % ",
"B.i.j.Q L A ^ B N T $.X.1.a.D.y.y.g.3.;.*.$.) ) ) / / ( ( ( L Z Z B f 0 t f Z Z V ( L T K L C @ # # ",
"J.u.p.Q T A N q q Q G.P.j.y.y.e.t.p.3.;.>.&.) ) ) / / / ( ( K Z V V f t e a t e N L ` ` L C C ; & & ",
"U.e.t.Q W S z 2 2 X.P.I.D.r.e.t.t.f.3.;.=.&.' ) ( ( / K / K Z V N C N s s a e 9 N L T ` L J C & & & ",
"G.1.t.R C C T ;.Q 0.a.D.a.y.t.t.w.t.3.*.>.&.` ` ( / K K L L Z V V V V s s s y e s N z C A A C # & & ",
"m.t.f.U r 2 ;.G.G.c.a.i.a.y.t.t.w.w.3.$.;.$.` ` ` L L K L L K J C C N s s s s t t t q s C A C # & & ",
"k.3.f.U r 2 X.P.U.M.i.i.a.t.5.w.9.q.3.$.*.$.W T ` L K K L I L K C N N N s y y t y t q y A A C # & & ",
"h. .;.U U U :.j.a.i.i.a.p.1.3.d.2.q.2.$.*.$.W T W L K K L I I K C N N N N f y y s t q s V C N @ # & ",
" .2 2 3.P.G.j.y.y.y.y.u.w.<.*.$.=.=.<.=.*.*.$.Q ' L I L K ( ) Z V C C V C C Z Z f s y y q e q % # & ",
"G < 2 <.v.k.j.y.y.y.y.t.w.3.=.=.=.=.=.=.*.$. .R R J J K K I ( h V C C C V V Z C f y y y q t q % # & ",
"O.H R 3.f.f.t.5.5.4.1.1.<.2.=.=.<.=.<.<.3.<.;.;.;. .] ' ` ' ' K V V Z Z Z V V N f y s s t t q % # & ",
"(.j.j.w.<.<.<.<.1.1.:.<.;.=.=.=.<.>.2.d.h.h.f.f.h.d.d.8.2.6.&.` V Z Z Z Z V V N N s f f y u t % % & ",
"_.H.G.w. .;.*.<.<.<.>.<.<.2.=.2.>.;.3.h.k.k.k.v.k.h.f.d.2.7.6.' V Z Z Z Z V h h h s f f f f t % # & ",
"!.M.U.t. .<.$.=.=.=.=.=.=.&.&.&.$.;.>.f.h.f.f.g.f.w.3.3.<.2.>.` V Z Z Z Z V h h f a s f u f t $ # & ",
"_.M.U.t.$.2.' &.[ %.{ { %.' ' ' $.] ;.3.f.3.3.w.3.2.2.<.>.>.&.( V B B h h h h h h y a f u f t $ # # ",
"oXM.K.1. .<.' %.%.%.[ [ %.' ' ` ] ' $.3.d.3.<.3.3.<.<.>.$.&.[ Z V h h h h h h h h a f f f f y $ # # ",
"_.L.D.t.$.&.%.%.%.[ [ [ %.[ %.' ' ' $.2.d.d.3.3.3.;.>.=.&.&.[ K Z V h f f f h h f s f f f f t @ @ # ",
"E.b.a.1.$.2.%.' %.[ [ [ [ %.%.%.) ) #.=.s.3.2.<.3.<.2.>.&.&.[ L f f f f f f f s f y f s y u t @ # & ",
"!.b.n.3.$.=.=.%.%.&.[ [ %.&.&.%.) ) #.-.s.s.3.2.<.*.=.&.[ [ ' Z h V V V V h f s f f f f y f y % @ # ",
"K.y.g.3.] ' [ -.&.&.] ] $.&.&.=.' ) #.=.s.3.2.<.3.;.<.&.&.&.[ L V V V V N f f f f s s f y N y % # # ",
"4.M U $.$.' ` -.&.] ] ] $.&.=.=.[ ' %.2.s.3.<.;.<.$.*.&.$.&.[ L f s s s s s y s s t y s s N t + # & ",
"U O < U 2.2.] &.$.] ] ] $.=.&.&.=.&.=.7.d.d.3.<.<.;.;.>.$.&.&.L z s s s s s s s s y y s N V y @ # # ",
"Q l c T ' &.] >.;.} $.$.$.*.$.$.=.&.=.3.w.3.<.;.t.3.2.2.>.>.>.T s s s s s s s s y y s y t y y * & & ",
"j.5.3.R l z J ] } ] $.$.*.*.$.#.W W Q $.*.$.Q E Q U U U C C C r r r r y s y y r q e y q * 1 e > e e ",
".XE.F.! : 2 C >.] ] $.;.;.*.$.#.W W W W W W P C C C J L v z z r > q r r r r r r r q 1 2 . o O x l z ",
" XS.N...6 k C ] ] ] $.$.$.#.$.$.W W W W W L K C C V L K z s s r > q r r r r r r q 1 1 , ; : : l l p ",
"Q.C.N.e.X.;.R C V L W W W L W #.#.' ' ` ` L L C L C C C z s s r e r r r q e q q e > 1 r Y Y M 2 r r ",
".XC.L.n.G.G.] 1 > s J T L J L P $.$.] ' ' W L K L V C V s s s r y r r q 1 1 > ; : X o l k.G.3.2 1 1 ",
"oXC.L.D.G.v.W = r z C L L K L I $.] [ ' ' W L C L V V V s s s r y r q q 1 1 : & O o o l k.G.d.> 1 > ",
"W.M.F.a.t.d.$.L T C z z V K I L ` W W ` W L C V C z z z s s s r q q > > , , : : n E Y E <.<.*.> 1 1 ",
"V.b.M.a.w.q.7.8.7.T r q z K L A K L L T T L V N C s z N y s s r q q > > , : & O Y H.j.f.Q R I 1 1 1 ",
"(.i.a.p.w.d.2.6.8.T q q N ` ( Z V K L T ` L C V V s s N s s s r t q q 1 , : O   m H.m.k.Q R I 1 1 > ",
"B.@.e.w.;.<.$.&.&.L z N N N N Z K K L L L L C C N s N N y y s t q q > > & 5 E 8 o.1.t.<.R J v - 1 1 ",
"M.+.+.O.| Q I W ' L A A V y t t L K K K A V V N C s s s y y y q > q @ o & U P.n.X.E Q R J v s 1 > > ",
"a.X.X. .Q #.W ` L L T ` V t 9 t L L K A Z Z C N C s s s t y y q q q # . X b k.j.w.Q R U V s i q > > ",
"a.X.X.$.#.$.' I L L T L V y y f V N V V Z Z C N N y y s y y y q % ; k C b R w.w.w. .R T v s s q = ; ",
"p.X.;.$.| #.L V L L L A A V B Z q t s f V C N f N y y f y y t > o # R k.h.;.$. .R R Q J s s y = = ; ",
"t.X.;.$.' $.I L T L L T ` ( A Z e t s N Z Z C N V s f N f s y q # o Q G.v.2.P P P #.$.L s s y % = ; ",
"t.;.;.' L ` K K V V V C C V h f t t t s s s s y s e t y e t t q 1 o U <.*.*.| | P J L V s y r % ; > ",
"t.;.Q C i i 1 = q 1 1 > = > 9 q = = = @ @ @ @ @ % @ @ % @ % q 1 x < c p - i - - i - - 1 > q q > > > ",
"y.X.;.b p r r = > 1 1 1 1 > 1 1 > 1 ; # # # # o o & # o & o # , l p 2 1 1 1 1 1 1 1 1 1 > > ; > ; ; ",
"n.4.4.U b c c r p l l l l l l p l l l 2 2 2 2 , , 5 , , 5 , , l b b c l l l l l l l l l l l l p p p "
};
