/* XPM */
static char *b3f00f4e4cdd493befa43bd8cc10c7dcdMkn3PI5GZ0a6RhJ[] = {
/* columns rows colors chars-per-pixel */
"50 50 243 2 ",
"   c #663C18",
".  c #653D25",
"X  c #3D520F",
"o  c #4C4D18",
"O  c #5C491B",
"+  c #465616",
"@  c #525619",
"#  c #69431C",
"$  c #71441C",
"%  c #4F631E",
"&  c #564D24",
"*  c #5A4A23",
"=  c #5C4A2A",
"-  c #565424",
";  c #5C522B",
":  c #565427",
">  c #4C4E23",
",  c #644224",
"<  c #6C4623",
"1  c #614925",
"2  c #64452B",
"3  c #69452A",
"4  c #644B2C",
"5  c #6B4A2C",
"6  c #6E4B25",
"7  c #714622",
"8  c #744A25",
"9  c #734B2B",
"0  c #784D2B",
"q  c #665228",
"w  c #76522E",
"e  c #7C522E",
"r  c #654B33",
"t  c #6C4C33",
"y  c #694D3A",
"u  c #734E33",
"i  c #754B35",
"p  c #6C5136",
"a  c #685536",
"s  c #745235",
"d  c #7C5432",
"f  c #73533A",
"g  c #7B5539",
"h  c #7B5B3D",
"j  c #775A3A",
"k  c #58682A",
"l  c #58752D",
"z  c #676D3A",
"x  c #666737",
"c  c #776A3D",
"v  c #697638",
"b  c #72753C",
"n  c #63702D",
"m  c #7E5C43",
"M  c #765C46",
"N  c #654E40",
"B  c #7B6447",
"V  c #6B7944",
"C  c #777845",
"Z  c #776959",
"A  c #825D3C",
"S  c #8A5E3B",
"D  c #835835",
"F  c #83562F",
"G  c #8C623D",
"H  c #87643B",
"J  c #93673D",
"K  c #835D41",
"L  c #885D45",
"P  c #905E45",
"I  c #856245",
"U  c #8B6444",
"Y  c #8E6945",
"T  c #84654B",
"R  c #8A664B",
"E  c #8D6A4C",
"W  c #846B48",
"Q  c #916543",
"!  c #946B45",
"~  c #9C6E43",
"^  c #92664C",
"/  c #936C4B",
"(  c #9A6D4B",
")  c #8C744C",
"_  c #877948",
"`  c #9C7146",
"'  c #95724C",
"]  c #9B734C",
"[  c #97764A",
"{  c #836952",
"}  c #8C6D52",
"|  c #876953",
" . c #926D52",
".. c #9B6E53",
"X. c #9A6D59",
"o. c #8E7454",
"O. c #8D755C",
"+. c #8D7B55",
"@. c #957354",
"#. c #9B7452",
"$. c #9D7954",
"%. c #95755A",
"&. c #9B755A",
"*. c #96785B",
"=. c #9C7A5C",
"-. c #927950",
";. c #A27246",
":. c #A1734C",
">. c #A3794D",
",. c #AA794C",
"<. c #A17553",
"1. c #A37A55",
"2. c #AA7D56",
"3. c #A37C5A",
"4. c #A97C5B",
"5. c #A37459",
"6. c #A06F46",
"7. c #8C7962",
"8. c #927D64",
"9. c #9B7C63",
"0. c #947966",
"q. c #A67F61",
"w. c #5F8036",
"e. c #648338",
"r. c #6B953D",
"t. c #649A3C",
"y. c #6C9A3D",
"u. c #649738",
"i. c #72963D",
"p. c #64812D",
"a. c #5DA437",
"s. c #64A33C",
"d. c #6AA23F",
"f. c #65AB3D",
"g. c #72A73D",
"h. c #78B33F",
"j. c #6C8745",
"k. c #79884A",
"l. c #659542",
"z. c #6B9442",
"x. c #659B43",
"c. c #6C9C43",
"v. c #6D9C4B",
"b. c #699849",
"n. c #739442",
"m. c #749D44",
"M. c #7A9D44",
"N. c #749D4C",
"B. c #7B9C4C",
"V. c #78934B",
"C. c #7D8A52",
"Z. c #7D9B52",
"A. c #789B55",
"S. c #65A244",
"D. c #6DA344",
"F. c #6BAA44",
"G. c #6CA54A",
"H. c #6DAA4B",
"J. c #65AA41",
"K. c #72A445",
"L. c #79A145",
"P. c #75A44B",
"I. c #7AA44C",
"U. c #74AB4C",
"Y. c #79AA47",
"T. c #75B34C",
"R. c #7CA453",
"E. c #74AD51",
"W. c #7CAA54",
"Q. c #78A754",
"!. c #6FAA50",
"~. c #87874D",
"^. c #85924F",
"/. c #898A53",
"(. c #988656",
"). c #849B54",
"_. c #879655",
"`. c #919D5F",
"'. c #A7835D",
"]. c #AB835C",
"[. c #AD8257",
"{. c #B4865C",
"}. c #BB8B5D",
"|. c #B58559",
" X c #81A84B",
".X c #8BA35B",
"XX c #84A758",
"oX c #978566",
"OX c #9A8B77",
"+X c #8B9560",
"@X c #A68261",
"#X c #AC8563",
"$X c #AD8967",
"%X c #B28663",
"&X c #B48A64",
"*X c #BB8D63",
"=X c #B48D6B",
"-X c #B98B6B",
";X c #BD9167",
":X c #B6926D",
">X c #BC926C",
",X c #B29867",
"<X c #A68A73",
"1X c #B78D70",
"2X c #A89279",
"3X c #BC9371",
"4X c #BE9975",
"5X c #B89879",
"6X c #A89F66",
"7X c #AEA76E",
"8X c #C0875A",
"9X c #C28F66",
"0X c #C3956B",
"qX c #C4986E",
"wX c #CB9B6D",
"eX c #C9956A",
"rX c #C39672",
"tX c #CA9673",
"yX c #C59B74",
"uX c #CB9C74",
"iX c #C49D7A",
"pX c #CB9E7A",
"aX c #D29C73",
"sX c #D89F72",
"dX c #C18E73",
"fX c #CCA175",
"gX c #C5A27B",
"hX c #CCA27B",
"jX c #C3A376",
"kX c #D2A172",
"lX c #D2A37C",
"zX c #D3A87E",
"xX c #8C9895",
"cX c #A89782",
"vX c #B99F84",
"bX c #BBA188",
"nX c #D09F81",
"mX c #C5A382",
"MX c #CCA481",
"NX c #C7A889",
"BX c #D1A581",
"VX c #D5AB87",
"CX c #C7A893",
/* pixels */
"y.c.v.b.b.x.g.h.g.g.c.b.A.Q.U.F.T.T.U.D.D.c.z.z.z.W.N.Q.c.x.y.K.L.P.F.J.F.F.y.i.n.z.x.S.H.U.L.i.c.b.",
"y.y.b.b.x.c.g.h.Y.g.r.z.N.Q.U.U.F.F.F.D.D.K.K.m.r.I.m.P.c.u.y.K.R.W.U.F.F.s.u.r.i.r.t.x.H.U.m.i.r.l.",
"y.y.b.x.x.x.K.Y.Y.g.r.c.P.P.Y.U.T.T.U.D.D.x.t.u.m.Y.Y.I.I.y.K.m.V.B.I.U.U.d.y.M.n.r.x.S.H.U.M.i.c.c.",
"M.L.D.x.t.t.L. X Xm.c.P.E.U.Y.Y.K.U.F.D.D.D.D.t.y.c.K.c.W.m.P.e.k k e.c.c.y.m.L.L.P.G.G.G.D.L.M.P.P.",
" XI.K.s.t.y.B..X.XZ.P.U.U.U.I.I.U.U.P.G.D.D.d.t.y.D.Y.m.XXXXXXl o - v V.m.m. X XI.Q.E.H.S.x.m.I.I.I.",
"M.L.d.s.s.c.V.^.^.).P.F.f.F.I.I.R.N.I.P.P.x.u.u.D.K.I.I.XX.X.Xk q q b k.i.m. XI.Y.U.E.H.S.x.L.I.I.I.",
"m.y.s.f.F.c.j.z z k.P.s.a.f.L.n.l l w.N.W.P.c.Y.r.c.n.n.n n v : 4 4 a x % p.m.u.K.G.H.H.G.K.P.I.Y.K.",
"i.u.a.f.T.c.z > > V v.a.a.s.i.v + + k V.XXV.z.N.N.B.V.^.- o ; = t 3 q - + n M.y.x.S.G.!.E.W.R.I.K.F.",
"y.t.a.f.s.XXx : : V l.J.s.t.M.b : : x +XC..XV..X).k._.~.a = a 2 t . 5 O o v n.K.x.E.G.W.W.I.XXI.K.F.",
"c.d.f.F.D.Z.x ; ; k.v.S.s.D.).b ; ; x oXk.C.k n z k x x 4 = f m  .R =.(.~.^.B.N.x.l.l.z.l e.w.I.K.D.",
"U.H.H.U.I._.x * & C Z.v.c.R..XC = r j oX+._ : - : & * 4 4 2 f X.&.&.:XgX7X6X.XXXQ.z.V.j.X % + XXI.Y.",
"U.U.P.I.)./.c 1 * C _.A.A.)._._ 1 5 f o.o.) ; = * q 1 1 t 3 t R &.( %XjXjX6X_.).Z.j.C.b o @ @ _.).XX",
"G.P.v.e.b c ' ' -.W C V k./.~._ H I U @.*.o.4 4 4 W T h U I K ^ 3.] {.pXjX(.b C V z B c -._ _ b b b ",
"t.v.j.k * 6 ].hXgXW * & B /._ -.#.5.$.$.3.@.5 5 5 -.=.@.=.3.&.3.] ` {.aXpX[ O - : & 1 A MXgX,Xq & & ",
"t.N.k.a 1 < {.lXhXY 2 4 B -.) [ ] $.] Y @.R 5 5 5 } =.@.@.@./ $.` ` }.aXaX] O * * = . L nXlX,XO 4 r ",
"c.R.C.c h d [.}.;X! U I E E H ! [.].1.! #.' d A U =.@X3.' U Y #.[.[.9XaXlX2.w h I E L 5.tXpX&Xw 5 t ",
"V.Z.`./.+.$.( ~ ( dXMXBX3.# 6 H hXhX*XG S J <.] 4.hX3XpXd 7 # %XhXMXrX0XfX&X` >.{.lXuXyXlX0X3X5 t t ",
")._.^._ W $.$.q.( -XpXlX1.# # J fXfX*XG G Q ] ] ( rXpXhXd < 0 1XiXmXiXiXpX*X;.~ [.kXkXuXfXfX3X9 t t ",
"~.~./.(.-.=.U U ( %XdX>X1.D H [ jXiX&X! ! ! #.] 3.$X=X$XI g h  .1X=X=X&X].].[.>.}.0X0X0X*X>X3.d A A ",
"~.~._ (.) $.g i . P ..<.&XhXMXgXgXiX:X] $.' $.@.$.I U E @.%.%.m ,   < < 8 >.uXuXwXfXlX{.    S VXMXhX",
"_ _ _ -.' $.g 9 i ^ X...%XBXMX3XgXiX>X#.$.@.=.%.%.m T B 7.O.0.M f 9 0 < # ] pXpXyX;XfX;Xe $ e rXyXyX",
"$.$.'.' / / K i g K ^ ..@X>X>XiXyXiX=XY Y E *.-.9.T { M 0.0.0.M t 9 d d e 1.hXuXqX;XyX1.8 0 Q tXqXqX",
"iXyX>Xd 8 d ^  ...^  .^ ( #.( #XyXpX&Xe e A @.-.} f r y OXcXcX0.@.#.3.#./ #XiXrX;X1.] ( ] <.#.! ] :.",
"tXpXlXe < < ^ #.#.^ U D U 1.] 2.yXfX{.7 # d @.@.E j r r oX2XOX8.@.#.#.' ] &XhXMX&X( ( ] 1.! #.#.#.#.",
"aXaXeXF 0 7 / $.#.Y H G ! ] 1.[.lXqX|.F 7 D ! $.@.h , p <X2X2XoX=.#.@.@.$.#X4XiX#X4.] #.] ] 1.' @.@.",
"9XtXaX:.] ! :X4XgX#X#.$.1.] ! ! ~ ;.|.0XrXrX3.#.E :XmXvXvX5XvX5X4X>X3.U h h d 5 $.4X3X=X] #.! d s s ",
"uXuXuX>.:.] >XhXiX1.Y ' 3.#.#.1.2.:.2.pXyXrX] ] 3.gXgX4X5XmXNX4XmXgX@XH A K 5 , K iXmX4X/ 3.Q < 3 4 ",
"pXtX0X<.1.#.:XiXMX$X@.' $.] ] 3.( ( <.hXrXrX] '.#.yX4XMXiXgXiXgX:X3X=.I R I 5 5 @.mXiX=X#.3.! 0 u t ",
"D d L U #.@.$.$.@.A 5 s U *.&.E U U ^ $X#.#.< < d #.#.].#.1.] / ' $./ E @.m 3 t t g A Y >X>XyX>X1X1X",
", , s E =.=.*.$.=.I 3 3 I 9.=.E R I I $. .$.s 9 w ] ] ' ' 1.] G d H E =.=.I t s f 3 3 A MXrXhXrXpXpX",
"f t f T @. . .*. .m t i L %.9.*.T B } *.%.E 5 , < / '.$.$.` ] ! G U ' =.@.m t 5 f t 5 I MXhXhXqXuXuX",
"E I T *.9.9.9.<X<X<X<X<X0.m f m f p T %.=.=.3.:X@XE w w #.] >.! ] ' #.$.@.@.} U t h 5 g 3.'.] Y S S ",
":.( 3.} O.7.OXcX2XvXbXCX*.. i t i 2 s #.#.1.pXMXiXs 5 3 &.#.( :.1.] ] $.] ' $.=.I s s t =.@.} 5 t t ",
";.6.4.) O.7.OX2XOXcXbXNX*.3 i t t 3 d ] ;.,.tXpX3Xu t 3 &.] ( ;.( ~ ] :.] ] ] ' I , 5 5 %.=.o.t r y ",
"8X|.*X#.*.O.8.oX8.2X5XmX@XK ^ L I I ! 1.;.,.wXyXiXU U I =X-X{.*X}.}.*X*X*X*X&X&X&X#.#X#.I I h m m m ",
"sXaXuX4.=.-.o.o.) =XiXhX&X#.3.&.$.$.] :.~ ,.wXpXiX' @.@.4XfXwXkXwXfXwXeXuXfXfXhXfXiXVX=X< < 9 ( U U ",
"sXaXuX1.#.#.$.] ` *XpXyX{.:.<.<.] $.` ~ J ,.eXwXyX] ] ] >XfX0XwXeXwXeXeXkXuXwXuXyXuXpX].7 8 8 G S G ",
"eXeXtX] ! / ] ] ` *XaXeX|.;.( 1.[.{.[.|.}.}.eXwXyX] ] ] {.*X|.eXeXwXwXwXkX|.~ ;.{.pXyX;X] ] ( <.2.2.",
"tXuXuX( S G ` ` ~ }.sXwX}.:.( %XiXhXyXfXkXwXuXuXqX` ( ( ] ] ~ }.wXwX0XwXwX~ $ $ J pXpXfXpXpXBXzXuXuX",
"pXhXpX( S U ] ;.;.}.kXwX*X;./ &XhXfXqXuXlXyXpXfXuX>.>.>.] ` ~ qXfXfXuXzXzX] $ 8 Q VXrXrXBXyXhXrXyXyX",
"1X#X$XE U I ! ] ~ 9XwXuX{.( 3.3.&X%X%X].>X%X].1.:.;X2.&X1.! <.5.'.3.'.#X'.! < < ' $X=X3X#X$X@X>X&X&X",
"K g U m R E @.4.( ;XuXaX&X( $.@.D S G #.3.^ 9   e rXyX0X1.] #.A 5 3 , # 3 5 3 s d @.&. .K U I ( ] ] ",
"I K } T | T E @.] -XpXpX&X&.%.@.Q ! U #.&. .u 9 7 yXBXuX3.5. .s , t p p f s 5 3 h =.=.@.I E E $.#.] ",
"/ @.9.B B { O.*./ 4.&X&X4.&.*.&.Q ] #./  .U g u S rXuXtX3.&.@. .m { f 1 4 f h f I %.%.@.K K I *.$.#.",
"iXmX5Xm r y M M T R / / / #.&.5.BXpX$X3 t f =.q.5.tXuXyX3.( *.2XbXvX| 2 t T 9.*.@.=. .E u 3 u #.] ] ",
"yXhX5Xh = y { | T K I S Q 5.5.4.uXyX=X, t 5 @./ #.yXzXyX1.@.*.5XNXNX} r t I *. .*.q.@.U 9 < d 3.#.#.",
"0X>X:Xh r r M B | I  .^ ( 4.5.4.qX;X'.5 h j @.=.] &X0X*X] #.-.<X5X5XT 3 5 h =.@.U 3.=.^ 0 0 D ] ( ] ",
"G G Y t t y M { | R 3.#...3.( <.;.>.3.' =.o.@.@.1.:.` >.] #.} <XOXcX{ p 5 3 f , @.iXhX>X#.<.] 5.#.#.",
"U I T t p r B T I  .5.<.#.<.<.] ] ] #.$.$.$.#.] ] ~ :.] $.%.O.OXxXxXZ 2 t p y r E pXuX*X] #.<.#.#.#.",
"R R T p p r B T I  .5.<.#.<.<.] ] ] #.$.$.#.#.] ] ( :.] *.*.O.OXxXxXZ r p y N y / pXaX9X] #.<.#.<.#."
};
