/* XPM */
static char *_ad8f01f4757422abf73c6031d145996Peso6XBS8KUcMEdR[] = {
/* columns rows colors chars-per-pixel */
"50 50 244 2 ",
"   c #000505",
".  c #000B01",
"X  c #00050C",
"o  c #010C0C",
"O  c #011303",
"+  c #00140A",
"@  c #011C0C",
"#  c #071907",
"$  c #131A01",
"%  c #020612",
"&  c #030C15",
"*  c #090B16",
"=  c #060E19",
"-  c #090E19",
";  c #031314",
":  c #091414",
">  c #051A14",
",  c #051219",
"<  c #0A121C",
"1  c #05191D",
"2  c #0A1B1B",
"3  c #0D1C17",
"4  c #111C1D",
"5  c #10121E",
"6  c #02220F",
"7  c #162509",
"8  c #052213",
"9  c #0B2415",
"0  c #0B251A",
"q  c #0E291C",
"w  c #12241B",
"e  c #132C1D",
"r  c #1A2917",
"t  c #1C311A",
"y  c #222B0C",
"u  c #242E15",
"i  c #2B341A",
"p  c #263317",
"a  c #2D3715",
"s  c #0D1320",
"d  c #0D1B21",
"f  c #121522",
"g  c #151C25",
"h  c #132522",
"j  c #142D23",
"k  c #1B2C24",
"l  c #152B2C",
"z  c #1C2D2C",
"x  c #1C232D",
"c  c #1D332C",
"v  c #1D3A2B",
"b  c #183525",
"n  c #1E3830",
"m  c #12272A",
"M  c #233523",
"N  c #24352B",
"B  c #233B2C",
"V  c #2A3C2B",
"C  c #273825",
"Z  c #333B27",
"A  c #243C33",
"S  c #2B3D34",
"D  c #263938",
"F  c #313F37",
"G  c #252B35",
"H  c #39401F",
"J  c #2A422E",
"K  c #38452B",
"L  c #264235",
"P  c #2A4335",
"I  c #2C443A",
"U  c #2C493A",
"Y  c #2F4B34",
"T  c #324334",
"R  c #334934",
"E  c #32443A",
"W  c #344A3B",
"Q  c #3B4838",
"!  c #3C523C",
"~  c #33553A",
"^  c #444B2B",
"/  c #434E3B",
"(  c #474D38",
")  c #485336",
"_  c #555E3E",
"`  c #2C4343",
"'  c #2C4944",
"]  c #3C4D44",
"[  c #364B46",
"{  c #335244",
"}  c #3B5445",
"|  c #3D544C",
" . c #3D5B4C",
".. c #37574A",
"X. c #3C5852",
"o. c #2E5040",
"O. c #435544",
"+. c #42544B",
"@. c #445B4D",
"#. c #4B5D4C",
"$. c #485A46",
"%. c #575E44",
"&. c #425652",
"*. c #445B53",
"=. c #4A5C53",
"-. c #495A58",
";. c #535F5B",
":. c #4A614C",
">. c #5A654A",
",. c #456253",
"<. c #4C6454",
"1. c #4D645A",
"2. c #4D6A5B",
"3. c #476959",
"4. c #53655B",
"5. c #536B5B",
"6. c #586856",
"7. c #57715B",
"8. c #4E7354",
"9. c #646D4C",
"0. c #656D56",
"q. c #6C7454",
"w. c #6A765A",
"e. c #72745B",
"r. c #757B59",
"t. c #767957",
"y. c #6E7049",
"u. c #475F63",
"i. c #4E6862",
"p. c #546C61",
"a. c #5A6C63",
"s. c #536867",
"d. c #557265",
"f. c #5C7364",
"g. c #5D7469",
"h. c #5D7A6B",
"j. c #5A7866",
"k. c #5D7571",
"l. c #63756B",
"z. c #627B6B",
"x. c #687A66",
"c. c #787C67",
"v. c #647E73",
"b. c #6A7D74",
"n. c #687875",
"m. c #737F73",
"M. c #7E865D",
"N. c #7A8468",
"B. c #668275",
"V. c #6B8374",
"C. c #6C847B",
"Z. c #6C8B7A",
"A. c #698A75",
"S. c #738A7D",
"D. c #758677",
"F. c #708F76",
"G. c #80885D",
"H. c #868A6A",
"J. c #888B75",
"K. c #8E9474",
"L. c #89937A",
"P. c #949976",
"I. c #8D946C",
"U. c #9DA27E",
"Y. c #9CA476",
"T. c #738C82",
"R. c #7B8C82",
"E. c #708888",
"W. c #7B9283",
"Q. c #7A958A",
"!. c #7F9492",
"~. c #6E8782",
"^. c #7FA193",
"/. c #839B8C",
"(. c #8C9C8B",
"). c #839689",
"_. c #969984",
"`. c #869C94",
"'. c #8A8F81",
"]. c #86A58D",
"[. c #9AA385",
"{. c #8CA495",
"}. c #8DA89A",
"|. c #93AB9C",
" X c #97A898",
".X c #99B59E",
"XX c #A5AB84",
"oX c #A6AB8B",
"OX c #A5AB87",
"+X c #ACB38C",
"@X c #A8B187",
"#X c #A4AE98",
"$X c #A9B299",
"%X c #B4BB9A",
"&X c #B5BA98",
"*X c #B2B98E",
"=X c #97ACA3",
"-X c #9AB5A7",
";X c #94B3AA",
":X c #A7B8A6",
">X c #B8BBA6",
",X c #ACBCB6",
"<X c #A2AFA6",
"1X c #BCC39C",
"2X c #BEC3A2",
"3X c #ABC6B9",
"4X c #B4C9BA",
"5X c #AEC7B0",
"6X c #C1C29F",
"7X c #C3C7A6",
"8X c #C8CDB6",
"9X c #D6D7B8",
"0X c #D0D4AF",
"qX c #BAD5C8",
"wX c #B7CDC2",
"eX c #D7D8C4",
"rX c #C7D3CF",
"tX c #D8E5DA",
"yX c #E8E9D6",
"uX c #F3F3D9",
"iX c #E6E9CB",
"pX c #DFECE7",
"aX c #E5ECE8",
"sX c #E9F4EB",
"dX c #FEFEEC",
"fX c #F6F6E7",
"gX c #EDF5F4",
"hX c #EDFAF5",
"jX c #EBFEFA",
"kX c #F3F5F4",
"lX c #FAF5F5",
"zX c #F4FBF5",
"xX c #FDFDF4",
"cX c #F5F7FB",
"vX c #FBF6FC",
"bX c #F5FEFC",
"nX c #FAFFFE",
"mX c #FFFFFD",
"MX c #FFFEFF",
"NX c white",
"BX c #FEFFFF",
"VX c #FDFEFE",
"CX c #FEFEFD",
"ZX c #EFEEF1",
/* pixels */
"nXnXVXVXVXVXVXVXlXVXvXVXVXnXnXhXbXsX*.}.nXaXnXcXVXgXnXnXjXbX}.=.hXgXbXVXVXlXVXVXVXVXVXVXCXlXzXCXVXVX",
"nXVXVXVXVXVXVXVXVXVXvXkXVXaXnXnXtX} <.I S.nXcXbXbXnXnXhXbXQ.=.&.4.tXnXnXkXVXxXlXlXlXxXVXVXCXVXzXVXVX",
"VXVXVXVXVXVXVXVXZXVXVXkXbXnXnX,Xj j.@.l.=.&.aXnXZXnXnXnX=.A B.1.<.N <XsXnXCXZXVXVXVXVXCXxXVXVXlXVXVX",
"VXVXVXVXVXVXVXVXVXVXnXnXnXnX,XS 9 j.5.@.T k n.rXnXnXrXa.c | I d.<.9 +.|.bXkXVXzXVXCXVXVXlXlXVXVXVXVX",
"VXVXVXVXVXVXVXVXVXkXnXpXnXS.4.S.6 v B B O S ).;.rXrX[ =Xc j  .b v . 5.S.b.bXkXsXzXkXlXVXVXVXVXVXVXVX",
"VXVXVXVXVXVXVXVXVXgXzXhXS +.b.3X .@ @ @ + a.|.4.&.F b.`.b.0 @ O O  .qXz.1.N tXnXnXVXzXzXVXVXcXVXVXVX",
"VXVXVXVXVXVXVXVXnXnX,XE 1.=.@.z.qXF.O @ p.R.l.S 4 z ] l.C.p.9 @ B.qXZ.v 2.b.E =XaXnXnXaXVXVXbXVXVXVX",
"VXVXVXVXVXVXVXnXbXR.E b.&.g.B } 5.4X{.R.`.4.N 3 o o > ] g.W.`.{.3Xj...L B. .a.P ).gXnXgXnXVXcXVXVXVX",
"ZXVXVXkXVXnXhXhX).I w z.p.,.j P 7.E z.V.} k o 2 2 ; o > A 1.v.S.<.,.v v  .2.Z.9 c `.hXnXnXnXnXkXVXVX",
"VXaXkXVXnXsXsXa.S.| + S j v 0 } /.1.f.+.h >   ; ; ; ; ; > c &.l.@.A.3.8 U I 8 8 1.g.a.pXbXsXzXVXxXVX",
"zXCXsXnXaXwXS <.S.:X} e @ O + }.).=.[ w   > ; < X ; 2 o   o l [ 2.-XW.8 0 @ . L 3XT.1.E wXbXnXkXlXVX",
"kXzXnXnX`.E =.+.1.}.=X*.. v B.v.=.k 4 o   2 2 d & & , ; o o ; 2 c p.B.C.L . ,.3X}.2.] =.] R.bXnXkXlX",
"nXnXaX#.6.f.{ h.P L W.4X-XV.T.@.k o o : < < & , , & & & < < & o 2 ` i.C.C.-XqXT. .q g.4.<.=.O.zXnXnX",
"zXaXl.w B f.5.@.O 2.,.U W.z.@.k : o o 4 g = % & , = = & & & , < &   z -.k.T.&.p. .q 5.@.V.r M l.rXnX",
"4X6.W.W k v I v @ v.V.h.2.S w   o : o & < < = = = < s - * & & < <   ; h [ C.*.v.d.q b B B 9 9 {.g.;X",
"O.$. X|.@ 6 @ O e -XZ.1.A >   3 o 4 & X & < < % = < s s s < * % & < X , o ` s.b.3Xj 9 @ . # :X{.=.*.",
"$.! 8..X5Xv O v V.T.&.2 > > o , & < < * & = d g < < < < - - - - & & & < , o z 2.C.V.L . V 5X#X7.` ' ",
"p t C :./.4XS./.p.} h ; 2 , X , & - * * & < < < & & = - - - - - = - = < < o 2 A I V.S.(.:X.X/ M k j ",
"K ).R C :.z.z.p.W h o ; 4 < * < < = & - < - & & & & * & = = = & - < * & < ; o > [ S a. X6.V T J 6.T ",
"p N.:X#.C O.4.N h w 4 : & < f * < - - < - & & & & & * & - - = * - s * % , < ; > + 0 S 5.O.t R 7.6.( ",
"m.C (.:X6.F ] . : : 3 : & * 5 % - , < < & & < g < < = , < < = * % s - % = < ; > > w j e B O.v.D.i ^ ",
"#X$.r '.m.] +.] 4 ; X o < < * * & & , < & & g G < < < < < < < * % f f - < & o ; o + } | } f.5.t ) q.",
",X:X6.w Q R.O.a.k z 2 o < < * < & & & < < = g G < < , < < s < = * s s - < & & 2 h n 2.@.V.<.9 R N.H.",
"#X(.7.V E @.b.1.k &.F o X & & & < & & < < = < x < - & < < d < , - - * & = & 2 D 1.q i.d.p.B 8 f.N.N.",
"(.6./.T e L P j . C.~.*.h X , X ; & & < < < < X - * & < < , & & - & - & , h ` !.k.> A q A 8 B W.<.x.",
"6.W {.V.j O q O ,.wXk.X.n l   d ; & , , X & < - f < - < < , ; ; X g < X 2 D k.i.qX| j q > O z.{.@.<.",
"#.} F.j.,.9 . h.wXh. ...X.' D o 1 1 d d & , g x f < - , , & & ; d X d z | [ *.&.B.qXC.. O a.R.p.A P ",
"M t R z.W.Q.}.3XB.~ L d.3.d.I l 1 o & & & < g f < - = , , & & ;   D h D n.| ~.L { h.-X:X{.(.} P N 0 ",
"M D.R J ! j.].v  .U v 2.i.p.c A X.l & X & < 5 * < < < < , & ; 1 > | | > 2.g.1.A L W p.D.5.#.r V 4.B ",
"K (. X! R <.<.5.}.} @ e @.9 9 =.`.u.l , & - < * - - = & & & 1 d &.`.| 8 I 0 v O ,.W.@.6.#.M T x.6.Q ",
"0.u :X X6.O.} 7.F.|.9 > @ + 0 ,XE.i.` l , X % X - * & & & 1 l ` i./.|.{ 8 8 @ @ `./.5.O.9 T (.x.Z ( ",
"%XK Z J. XQ :.R O./.z.e . @.4X{.X.X.-.&.G , & * < < = ; 1 l [ i.{ ,.=X3X .. j h.Z.4.S t $.N.>.r K e.",
"%XoX%.u w.0.7 J J <.V.F.]..XF.~ ~ 3.2.1.-.z , , & 1 1 o l ,.,. .A.b ..^.-X}.T.`.] A M # Z ( $ ^ H.H.",
"@X+XP.>.K u p 7.6.r ! 8.].~ 8.~ O 2.5.h.n D s.d & 2 2 v.j P h.7.3.6 { ..p.Q.d.[ A ] #.V O u >.r.P.I.",
"OXP.&X&XN.q.0.>.:Xx.J Y z.,.h.A.8 } U 0 j z !.n.z c k.Q.c @ L b b O B.d.1.g.I e ] D.$./ 9.>.r.H.q.r.",
"9XXX+X7X1X%XH.y L.$Xx.W } h.h.-X8 + O 9 > =X=X&.a.-.=.=X-X0 0 8 O v |.Z.<.E V $.).<.C 0.J.H._.e.L.>X",
"dXiX6X@XU.&X@Xq.7 w.5X:.B +.i.T.}.A . k 4X:X6.T V W <.f.|.3Xq . U B.T.E V M $.D./ i ( N.H.e.J._.tXxX",
"uXdXuX6XXXXX1X1XM.7 ) x.V N S &.p./.{.qXW.#.V r M r M M 4.|.3X-XS.Z.P t V t p ) $ %.J.c.c.c.'.yXCXVX",
"fXdXdXuX0X@XXXP.+Xr.) p # x.D.w +.p.f.l.6.7 K >.u p [.O.V +.Z.g.a.T r $.Q p O u q.c._.c.c.>XfXVXVXVX",
"CXCXfXdXdX9X1XP.*X+XP.>.N.Q  XL.S E l.! # ) 0.r.K K N. X6.k +.a.N M 6.D.K _ ) r.q.K.c.c.eXCXxXVXvXvX",
"vXVXVXxXxXdXiX%XoX+X1X%XK.H >.8X(.S O.r ) N.q.a 9.9.p #X:X6.Q Q N m.N.( ^ q.K.I.I.e.J.eXxXCXlXVXVXVX",
"vXVXVXVXCXxXdXuX2X&XXXU.7XG.^ ^ [.x./ K w.q.u a q.%X9.p w.:X/ Z >.c.( $ %.P.q.N.c.$XyXxXCXxXxXVXVXVX",
"VXVXVXVXVXCXxXdXfX8X+XU.1X*XG.a ) N.O i %.y ) q.OX[.oX9.$ x.$.O ( Z u q.H.c.H.q.>XuXxXxXxXVXVXxXVXVX",
"VXVXVXVXVXvXlXxXxXdXeX[.1X@XY.XX) u ^ . y ) r.[.J.OXOX%X9.i i i $ i e.J._.H.e.8XxXxXxXxXVXVXVXVXVXCX",
"VXvXVXVXVXVXVXVXCXfXdXyX&XK.@X+X[._ K.^ _ K.H.q.e.7XH.oX7XN.9.t.Z K.H.e.c._.yXxXCXCXCXVXVXlXlXVXVXCX",
"xXxXzXCXVXVXVXVXcXVXCXdXdX2XU.OX&X1XK.I.I.H.J.e.8X9X&XOX+X2X&XM.P.t.I.c.J.fXxXzXlXVXVXVXxXVXVXVXVXCX",
"dXdXxXzXzXbXvXvXVXZXVXCXxXuXiX*XXX@XXXr.r.K.P.eXdXdXyX>X@X+XY.I.t.H.r.%XdXxXzXlXVXVXVXkXlXVXVXCXVXVX",
"fXdXxXxXCXVXVXVXvXVXVXZXxXxXdX9XOX@X@Xy.c.J.yXxXxXdXdXuX>XU.+XY.y.t.7XdXxXxXCXVXVXVXVXVXVXlXzXVXVXVX",
"CXCXCXCXVXVXVXVXVXVXVXVXVXCXCXxXfX$XU.r.$XxXZXVXCXxXxXxXfXeXOXH.K.eXxXxXxXCXCXVXVXVXVXVXVXVXVXVXVXVX",
"VXVXVXVXVXVXVXVXVXVXVXVXVXVXVXCXCXyX7X7XfXCXVXvXxXzXCXVXVXfX0X+XyXxXCXkXlXVXVXVXVXVXVXVXVXVXCXCXVXVX"
};
