/* XPM */
static char *ce2e8bbd76e84b458bc0597bd24b5268[] = {
/* columns rows colors chars-per-pixel */
"50 50 179 2 ",
"   c #D68F19",
".  c #C3911E",
"X  c #EEB71E",
"o  c #EFB81F",
"O  c #F7BF14",
"+  c #F0B71F",
"@  c #F5BD1D",
"#  c #FBBD1E",
"$  c #CD8E27",
"%  c #CC8E2A",
"&  c #D18E2C",
"*  c #CC9222",
"=  c #CD912C",
"-  c #D39027",
";  c #D2932E",
":  c #D4992E",
">  c #D58836",
",  c #CC9533",
"<  c #CC9B33",
"1  c #CF9738",
"2  c #D49633",
"3  c #D99532",
"4  c #D49934",
"5  c #D89A33",
"6  c #D69738",
"7  c #D89638",
"8  c #D5993A",
"9  c #EFB724",
"0  c #EDBD21",
"q  c #F4B524",
"w  c #FCB622",
"e  c #F5BD22",
"r  c #FABD22",
"t  c #F4BD29",
"y  c #FBBD29",
"u  c #EECF1D",
"i  c #F1CD17",
"p  c #FACE15",
"a  c #F3C21E",
"s  c #F9C21E",
"d  c #F5CC1D",
"f  c #FBCC1C",
"g  c #F5D11B",
"h  c #EDC325",
"j  c #EECD23",
"k  c #EEC42A",
"l  c #EFCE2C",
"z  c #F5C324",
"x  c #FAC223",
"c  c #F5CC25",
"v  c #F9CC24",
"b  c #F4C62B",
"n  c #FAC429",
"m  c #F5CC2A",
"M  c #FACC2B",
"N  c #EFD020",
"B  c #EED02A",
"V  c #F4D123",
"C  c #FAD125",
"Z  c #F4D12C",
"A  c #FAD22D",
"S  c #EDC532",
"D  c #EFCC3A",
"F  c #F2C534",
"G  c #F6CD33",
"H  c #FACD32",
"J  c #F5CC3C",
"K  c #F9CD3C",
"L  c #F6D333",
"P  c #FBD334",
"I  c #FCD935",
"U  c #F7D33D",
"Y  c #FDD63B",
"T  c #FDDA3D",
"R  c #F6E63A",
"E  c #FBE43D",
"W  c #F9E93E",
"Q  c #F6CD41",
"!  c #F8CF41",
"~  c #F4D046",
"^  c #FDD642",
"/  c #FEDB43",
"(  c #FFD448",
")  c #FDDE4B",
"_  c #F7DE50",
"`  c #FEDD52",
"'  c #F6E444",
"]  c #FDE145",
"[  c #FCEB46",
"{  c #FEE34A",
"}  c #FEEC4D",
"|  c #FCF245",
" . c #FCF14D",
".. c #FEE453",
"X. c #F7EE51",
"o. c #FEED51",
"O. c #F5E15E",
"+. c #FEE35C",
"@. c #FEEC5C",
"#. c #FEF152",
"$. c #FEF25D",
"%. c #FEE365",
"&. c #FFEC62",
"*. c #FEE56B",
"=. c #FFED6A",
"-. c #FEF264",
";. c #FEF46C",
":. c #F1E670",
">. c #FFE770",
",. c #FDEC73",
"<. c #FDED79",
"1. c #FEF573",
"2. c #FBFB74",
"3. c #F7F27D",
"4. c #FDF57B",
"5. c #FCF97D",
"6. c #F5ED82",
"7. c #FBE983",
"8. c #FDF484",
"9. c #FFFE87",
"0. c #FEFC85",
"q. c #FBF489",
"w. c #FDF58A",
"e. c #FEF48C",
"r. c #F9FF8B",
"t. c #FFFF88",
"y. c #FFFE8A",
"u. c #FEFA8F",
"i. c #FDFF8E",
"p. c #FEFD8C",
"a. c #FFF792",
"s. c #FFFB90",
"d. c #FEF993",
"f. c #FFFA92",
"g. c #FAFF92",
"h. c #FFFF91",
"j. c #FDFF93",
"k. c #FFFE93",
"l. c #FFFA95",
"z. c #FEF896",
"x. c #F8FF94",
"c. c #F8FD97",
"v. c #FCFF94",
"b. c #FFFF94",
"n. c #FFFC97",
"m. c #FDFD93",
"M. c #FAF69F",
"N. c #FCF69D",
"B. c #F7FF9B",
"V. c #F9FE98",
"C. c #FFFD99",
"Z. c #FFFF98",
"A. c #FFFF9A",
"S. c #FBFA9D",
"D. c #FFFF9D",
"F. c #FDFD9B",
"G. c #FFF4A2",
"H. c #FFF6A7",
"J. c #FFF6A4",
"K. c #FFFEA0",
"L. c #FFF3AA",
"P. c #FDF4AC",
"I. c #FFFBAB",
"U. c #FFF9AE",
"Y. c #FEFFAD",
"T. c #FFF8AD",
"R. c #FEFFB5",
"E. c #F7FCB9",
"W. c #FCFEBD",
"Q. c #FDFFBD",
"!. c #FFFFBD",
"~. c #FDFDBD",
"^. c #FFFEC3",
"/. c #FEFFC3",
"(. c #FFFAC6",
"). c #FBFFC4",
"_. c #FFFFC7",
"`. c #FEFDC4",
"'. c #FFFBCD",
/* pixels */
"V j L i i Z c v d G G d x y O s # t x f v m v v m v c c y y @ s r r r r e r r r b V v V c v a , 2 2 ",
"d b H H H M m f d v v d x e @ r e t z c c m m m v v c v r y r r r r e e e e e e x M M m m n m 6 2 2 ",
"H M p v c u l B m j c G b x y y y # x M v v v v g c m m x # e y x x e e e e e r # Z M v m M m   2 2 ",
"j m V >.8.8.G.L.T.N.S.J.,.W ] ] { E @.4.5.5.8.8.8.q.q.4...] [ ] ] / T P Y Y Y P +.5.3.1.4.8.:.8 2 2 ",
"j m N 8.j.r.Y./.~.E.).'.w.| } o.o.} ;.n.C.j.n.j.i.z.C.t.-.}  .o.#.o.{ ^ ^ ^ ^ ^ *.C.n.t.j.F.6.3 2 2 ",
"V n d 8.x.V.I./.~.~._.(.w.| | o. .} -.0.s.u.s.s.x.z.C.9.-.}  .}  .} ] T T T / T O.g.9.0.x.B.6.2 2 2 ",
"c n G J.R.T.,.+.+.+.%.%.+.] ] %.5.4.1.-.-.;.-.-.#.......Y I I H H H M n n M M m ^ =.@.,.a.j.7.3 2 2 ",
"V v l N.W.(.%.L ^ I I A / { ] *.C.F.4.| [ } } { } ^ ^ Y M v v @ @ r # # # x v v A { L @.u.i.6.2 2 2 ",
"c v G P.~.R.+.T / T ^ ( ^ R ' +.F.j.1.@.o.} } } } / / T G M M c e e e r e x M c ^ ] E &.s.n.<.< 2 2 ",
"V d m P._./.+.I ^ ^ / / +.1.1.1.;.;.$.o.} } { ..{ / / T G m v c v v n x z M I P / { ] ..1.;.%., 2 2 ",
"G c V d./._.*.P ^ ) { ] =.K.F.2.} } } } } } { { / T / T M m v v v v v c m I { { / ..) ] } | ) 3 2 2 ",
"M v G N._.~.%.I T ) { ] ;.K.C.2.} } } } } } ] ] { ^ / I M m v m m c c c m L ] { ] ..{ ] [ | ) 7 2 2 ",
"x x b <.a.e.+.I ^ { } ] @.1.1.-.} o.o.} { { / T ^ P P A M m m A Y Y P P P T / ) / / / / o. .) 4 2 2 ",
"y e a R } X.{ ) { } #.} } } } } } } } { { ) ( ( Y M m v m M M P / ^ / { ] { { { / / I / @.$._ < 2 2 ",
"s # x E } } { ] / } #.} } } } } } } } { { ) / ^ I A m v m m m P / / / { { ] { ] ] ^ T / o.#.) 5 2 2 ",
"@ r y ] @.@...' { } #.[ } @.X.} { o.{ / / T P L P m v v A A L T ] ] { { { ] ] ] T U I P I R K ; 2 2 ",
"r r y { o.| } @.} } } } } o.} } ] { / ^ T I m c v A v M I T / { } o.} }  .] / / P c m z r # o % $ $ ",
"e # @ ] }  .} @.} } } o.} o.o.} ] { / ^ ^ I Z c c m c m I T / { o.o.} } } ] T / I C M x r # + % $ $ ",
"x s a X.-.-.o.o.} } } } } { } { ] { / / / T P Z L L M L T ] ] }  .o.} { { / P Y M c v x x r e % $ $ ",
"v v m 4.j.u.-.} } } o.o.{ ] { { / ] ] ] { ] T Y I T T T { } } o.} } ] / ^ P m c z @ z r r r e % $ $ ",
"v M M 8.K.F.-.[ o.} o.o.{ / / ] ] { { { { ] ^ ^ T ^ ^ / } o.o.#.#.} ] T T P m v n @ r # r s + % $ $ ",
"m v c 4.i.x.-.} } } } } { { { { { { { / ] / ^ ^ T ^ / / { } } { } { / P I P M A n @ r r x x e % $ $ ",
"v M c 4.9.g.$.} } ' { { { { { { { { / ^ ^ ^ T ^ ^ / ] ] { { { / / ^ P m m v c v n @ r x n M z = $ $ ",
"c v M e.j.C.$.} o.{ ] { ] / { { { { / ^ ^ ^ T T ^ / { ] { { ) / ^ ^ P c v v m M n @ r x v M h % $ $ ",
"d v J 1.t.0.$.[ { { { { { { { { ] ] / ^ T ^ ^ / / ] ] ] { { / ^ ^ T P m v m c m v z z z L B S $ % % ",
"y e e { @.&...{ { { { ] ] { { ] / / / ^ T / / / ] ] { ] / / ^ T ^ T L c v v v c v v v M T I U 3 2 2 ",
"y r @ E } X.) ) { { ] { { ] ] ] T T T T T / / { ] { { / / ^ ^ ^ / T P m v v v v v v m M T I K ; 2 2 ",
"# x z [ o.o.{ ] { { { { { / / / ^ ^ ^ ^ ^ / ] { ] ] ] / ^ ^ ^ ^ ^ T P M m v v c v Z Z L T T ! 2 2 2 ",
"# r e { ..o.] ] { { { ] / / / ^ T ^ / / / { { { ] / ^ ^ ^ ^ ^ ^ ^ ^ T Y I A m v I T / T / T Q 8 2 2 ",
"z x e [ o.#.{ { { { ] ] ] ^ T ^ T T ^ / { { { { ] / ^ ^ ^ ^ T T ^ / ^ ^ T L c c P { { ) / T J 2 2 2 ",
"z n z [  . .{ { { ] / ] / ^ T / / / / { { { / / / / ^ ^ ^ ^ T ^ T T ^ ^ T L m l P ] ' / ^ T K 5 2 2 ",
"# r w T ] ] / { ] / / / / T T ^ { { { } } { / / / T T ^ ^ T T T ^ ^ ^ ^ / / T ] / } ] T G L b * = = ",
"# # y Y / ^ / { / / ^ ^ T T ^ / o.o.} } } } ^ ^ T ^ / / T I T ^ / / ^ T ^ ] } #.} ] { / m C z % $ $ ",
"x r n P T T / { ] / ^ ^ T ^ / / #.#.#.} o.} / ^ T T ^ ^ T T T T T T ^ ^ / { } #.o./ { / m v h % $ $ ",
"x r e H I L T / / ^ T T / { { ' } } { { { / L H L L L L T / T P L L T { { } o.} { ^ / Y m v h % $ $ ",
"x r e m m m P T ^ T T ^ { } #.#.} } { ^ ^ Y m v m v c m Y / T L c c T o.o.o.#.o.{ T / P M m h % $ $ ",
"x e e m v v I T Y T T / { o.#. . .o.{ / T P m m M M v M Y ^ Y L c j T o.o.o.#.} { T T L H m h % $ $ ",
"e r e m v M Y / ^ / ] ] } o.o.} { ] / P P P z x x x x v P P P P I I ] } { ' { { ^ P P L Y P m 2 ; ; ",
"e r e v v M Y ^ ^ { o.} }  .} { ^ T P m v n # # @ r e e v v M I { { { { ] / ^ ^ P v M Z ^ T L 6 2 2 ",
"x e x v v M Y / / { o.o.} #.} { / / Y m m v z e # y y e v d m T { { { ] ] / ^ ^ P v m Z ^ ^ K 6 2 2 ",
"# x z z n z T / ] { } } { { ] ] I I M n n n e e # x a z A H P T / / / / ) ^ P I C c v M / { Q : 2 2 ",
"r x e # x e T { / / { ] / ^ T Y c C c a s s # # n M m G I T ^ / I T T I T A c v c m Z L ) { ~ 4 2 2 ",
"t n y r r t ^ ..{ { ..{ / / / Y m M z e r r r r a v c m I I T T / / ^ ^ T L v v v Z j m ] } ^ 5 2 2 ",
"@ x x x x z P P I I E I I I I L v v n x @ e x x z M M L Y T T Y Y Y Y Y Y P A A M L m I { [ ^ & ; ; ",
"# r z v v c z e e x M M v v v z e r r r e z m m m Y T T ^ ^ T G v m m m M P Y Y / / ] } ..o.` = % % ",
"r x z m Z A x r r x M A M M M c # # x x x v M A Z T ] ] / / T L C C v M m Y / / { { ] [ } #.{ . $ $ ",
"e q 9 t h b e q X 0 b k h k k h q X + e X 0 t h k J Q Q Q Q K F z z z z 0 b K K J ~ ^ ( ` { D * $ $ ",
"4 2 3 2 = : = % & ; 4 4 ; 2 2 2 = % % & % % = % - : 2 2 2 2 : $ % % = % $ , 8 1 : 4 2 % = . * > $ $ ",
"2 2 2 2 2 2 ; $ $ ; 2 2 2 2 2 = $ $ $ $ $ $ $ $ % 2 2 2 2 2 2 = $ $ % $ $ = 2 2 2 2 2 ; % $ % $ $ $ ",
"2 2 2 2 2 2 ; $ $ ; 2 2 2 2 2 = $ $ $ $ $ $ $ $ % 2 2 2 2 2 2 = $ $ % $ $ = 2 2 2 2 2 ; % $ % $ $ $ "
};
