/* XPM */
static char *_3076d905443484ec2dae56d37ab071blHgqhxfblWtDMayA[] = {
/* columns rows colors chars-per-pixel */
"50 50 180 2 ",
"   c None",
".  c #12100B",
"X  c #1D1C1A",
"o  c #21261E",
"O  c #253E1D",
"+  c #123F2E",
"@  c #0D233D",
"#  c #2C2C2D",
"$  c gray15",
"%  c #313132",
"&  c #27401D",
"*  c #2A421E",
"=  c #0B4137",
"-  c #1C4D35",
";  c #2C4621",
":  c #2E4A23",
">  c #274423",
",  c #324E24",
"<  c #344927",
"1  c #335326",
"2  c #355529",
"3  c #3A552C",
"4  c #365A2A",
"5  c #3A5B2B",
"6  c #3B4D31",
"7  c #23583A",
"8  c #3D5A30",
"9  c #3C642E",
"0  c #3E692F",
"q  c #3E6430",
"w  c #465B3A",
"e  c #405C31",
"r  c #654825",
"t  c #7D5B2A",
"y  c #735728",
"u  c #715D3D",
"i  c #714F25",
"p  c #406A2F",
"a  c #436434",
"s  c #446C32",
"d  c #466238",
"f  c #4B6A3C",
"g  c #49673C",
"h  c #497334",
"j  c #497534",
"k  c #79623A",
"l  c #201A4C",
"z  c #283140",
"x  c #2D2952",
"c  c #252056",
"v  c #3E3B5F",
"b  c #272764",
"n  c #342F76",
"m  c #004C4C",
"M  c #014446",
"N  c #1D5940",
"B  c #005354",
"V  c #095650",
"C  c #074A54",
"Z  c #226F56",
"A  c #056965",
"S  c #127264",
"D  c #4D4D4E",
"F  c #595859",
"G  c #4B6344",
"H  c #516A42",
"J  c #557445",
"K  c #5A764C",
"L  c #5C7A4B",
"P  c #557946",
"I  c #447550",
"U  c #5F745E",
"Y  c #477648",
"T  c #46476A",
"R  c #5A5965",
"E  c #676769",
"W  c #7B7B7C",
"Q  c #7B7976",
"!  c #9A1F1E",
"~  c #AF0A03",
"^  c #BA1710",
"/  c #9A3B1B",
"(  c #CF0100",
")  c #D10000",
"_  c #C52B2B",
"`  c #81622D",
"'  c #8D6B31",
"]  c #846734",
"[  c #906E34",
"{  c #9A7536",
"}  c #9A763A",
"|  c #A27B38",
" . c #A34647",
".. c #9F7D42",
"X. c #837C73",
"o. c #138E7F",
"O. c #208979",
"+. c #5F834D",
"@. c #698E56",
"#. c #658852",
"$. c #68915B",
"%. c #71965D",
"&. c #418C6A",
"*. c #AB863E",
"=. c #B88E42",
"-. c #B38C42",
";. c #B79A56",
":. c #B1965A",
">. c #AB8441",
",. c #B6A353",
"<. c #B8A751",
"1. c #BEAD54",
"2. c #90846C",
"3. c #868072",
"4. c #938B76",
"5. c #93907F",
"6. c #A39578",
"7. c #C19545",
"8. c #CDBA5B",
"9. c #DFBB68",
"0. c #C8AB63",
"q. c #E2BF69",
"w. c #E9CA6B",
"e. c #E6C66A",
"r. c #F5DD6E",
"t. c #F1D66D",
"y. c #F9E36F",
"u. c #393089",
"i. c #43399A",
"p. c #4539A6",
"a. c #463BA8",
"s. c #2F5198",
"d. c #067C88",
"f. c #5A538F",
"g. c #655F97",
"h. c #7F7F81",
"j. c #7E7D89",
"k. c #7E7B97",
"l. c #584FA2",
"z. c #807E85",
"x. c #817E9F",
"c. c #817DA1",
"v. c #018C8E",
"b. c #08958F",
"n. c #828283",
"m. c #878788",
"M. c #8B8B8D",
"N. c #8E8E91",
"B. c #838198",
"V. c #939395",
"C. c #969699",
"Z. c #9B9B9C",
"A. c #98979A",
"S. c #A59899",
"D. c #9D9DA0",
"F. c #9896A9",
"G. c #A39FA0",
"H. c #A3A3A4",
"J. c #ABABAC",
"K. c #AAA7A8",
"L. c #AFAFB0",
"P. c #B3B3B4",
"I. c #BABABC",
"U. c #BAB9B8",
"Y. c #A9B0AA",
"T. c #BFBFC1",
"R. c #CACACC",
"E. c #C2C2C4",
"W. c #CECED0",
"Q. c #D6D6D8",
"!. c #DADADD",
"~. c #D2D2D4",
"^. c #DDDDE1",
"/. c #E3E3E5",
"(. c #E8E9EA",
"). c #E6E6E8",
"_. c #EFEEF1",
"`. c #F0EFF8",
"'. c #F2F3F5",
"]. c #FAFAFB",
/* pixels */
"                                                                                                    ",
"                                                                                                    ",
"                                                                                                    ",
"                                                    9 9                                             ",
"                                                0 s p q 9 9                                         ",
"                                            9 s j j h s q 9 9 9                                     ",
"                                        s q 9 s h j s 9 9 s s 9 9                                   ",
"                                      5 9 9 s s s s p s s s a q 9 2 >                               ",
"                                      2 2 4 9 9 s s j j s s 9 5 : O O                               ",
"                                      2 1 2 2 4 9 9 0 9 9 4 , ; O O O                               ",
"                                      a g d g 8 1 5 s 4 > & * O O O O                               ",
"                                      H J K L f 2 2 2 * O O O * * O O                               ",
"                                      w w L L K f 4 1 ; * O O O & O O                               ",
"                                      3 o 6 L K K f 1 > O & * * ; * O                               ",
"                                      a w 6 J H w f 8 ; * * * ; * O O                               ",
"                                      4 a d 5 6 o < d : ; ; * & O O O                               ",
"                                    P 2 1 1 1 3 w 6 e : ; ; * O & O O                               ",
"                                  $.@.P 3 ; , 3 a f 4 * * * * * *                                   ",
"                                @.@.@.#.3 * : , , 5 1 O & & 7 o.b.                                  ",
"                              2 a J f , * * 7 S 7 2 : & , Z b.v.A                                   ",
"                              4 , 1 > * * *   v.O.Y q a L I V m B                                   ",
"                              4 2 , * &       &.$.%.@.P 3 * = m B                                   ",
"                                  K G       f L @.+.a > * * + m m                                   ",
"                                ].'.(.).    2 4 5 , & * * > +                                       ",
"                            '.].'.]._.(.].`.U 1 1 * * > - = M                                       ",
"                            !.!./.'._.(.].'.Y.G 3 : N A m M M                                       ",
"                            W E.~.).'.'.!.P.D.T z n s.d.C @ T                                       ",
"                            . N.R.W.Q.I.Z.A.A.v n p.a.s.b x F.!.W.                                  ",
"                          >.[ 6.U.J.n.D.C.N.A.g.i.i.p.n l B.Q.R.T.C.                                ",
"                      ] k ..7.7.0.6.X Q C.M.M.l.p.p.u.c k.^.!.Q.I.A.                                ",
"                      { } *.=.=.*.-.` Q N.M.z.f.i.u.b x._.).R.P.V.n.                                ",
"                      ` ' { | } u k ` X.M.E F E R x c.'.(.I.V.A.N.M.                                ",
"                        t ` ' { ' y i X.M.D X $ # j.!.E.K.C.M.A.V.m.                                ",
"                          t t ` t r r X.M.D $ # $ Z.V.A.A.M.M.V.M.n.                                ",
"                            ^ / i r 4.V.n.E F D % Z.V.Z.C.V.A.M.n.W                                 ",
"                            ) ( ~ ! S.M.n.M.K.V.C.T.D.A.C.Z.C.M.n.W                                 ",
"                              _ ^  .S.V.Z.L.J.H.L.I.Z.M.M.M.n.m.W W                                 ",
"                              G.S.K.J.P.P.L.J.Z.K.P.A.m.n.h.W W W W                                 ",
"                              H.H.J.J.U.P.J.H.V.Z.K.M.n.W W W W                                     ",
"                                H.K.J.P.P.J.H.M.M.C.n.W W W                                         ",
"                                    J.J.J.K.H.M.n.h.W 3.2.                                          ",
"                                        K.H.H.M.n.h.  :.                                            ",
"                                            H.5.4.    ;.;.                                          ",
"                                              ,.<.    ,.;.                                          ",
"                                              8.1.    <.<.                                          ",
"                                      e.r.y.y.r.      <.<.                                          ",
"                                      w.r.t.t.y.      8.                                            ",
"                                          9.9.w.r.y.y.r.                                            ",
"                                              w.r.t.r.y.                                            ",
"                                                  9.q.                                              "
};
