/* XPM */
static char *_7decd4ff827422b82d9016d4e23b236dYPSv3SPsQXminsQ[] = {
/* columns rows colors chars-per-pixel */
"50 50 230 2 ",
"   c #0B0200",
".  c #150B04",
"X  c #1B1404",
"o  c #231B04",
"O  c #271817",
"+  c #2B2305",
"@  c #2A2316",
"#  c #33291B",
"$  c #3A3119",
"%  c #34362D",
"&  c #503318",
"*  c #593B2B",
"=  c #503C33",
"-  c #663B26",
";  c #31443B",
":  c #534329",
">  c #554637",
",  c #46473A",
"<  c #72412B",
"1  c #774C39",
"2  c #6A4B38",
"3  c #2E277C",
"4  c #322A79",
"5  c #3B3874",
"6  c #2F3773",
"7  c #413D7D",
"8  c #4A3D68",
"9  c #4E2E43",
"0  c #1E4544",
"q  c #34534F",
"w  c #2D635F",
"e  c #30685F",
"r  c #18596F",
"t  c #275C60",
"y  c #07757B",
"u  c #167976",
"i  c #136768",
"p  c #287878",
"a  c #367475",
"s  c #2E706F",
"d  c #525454",
"f  c #664D48",
"g  c #7A5848",
"h  c #765A55",
"j  c #69544F",
"k  c #65655C",
"l  c #7A6558",
"z  c #55596B",
"x  c #575978",
"c  c #4E546D",
"v  c #745263",
"b  c #5C6A66",
"n  c #566C76",
"m  c #47797A",
"M  c #4F736F",
"N  c #6D6B6E",
"B  c #776864",
"V  c #66726B",
"C  c #7C7165",
"Z  c #636676",
"A  c #777876",
"S  c #6F7177",
"D  c #845D58",
"F  c #85685A",
"G  c #936859",
"H  c #885C6A",
"J  c #826A63",
"K  c #886866",
"L  c #966964",
"P  c #877669",
"I  c #987569",
"U  c #896977",
"Y  c #957676",
"T  c #8D6D7A",
"R  c #A27474",
"E  c #A17469",
"W  c #A36E5E",
"Q  c #05857E",
"!  c #178177",
"~  c #35827C",
"^  c #55827C",
"/  c #9F877D",
"(  c #AA8477",
")  c #B88A7C",
"_  c #342B84",
"`  c #362C87",
"'  c #2A3489",
"]  c #3B3588",
"[  c #362B94",
"{  c #382D9A",
"}  c #2A3996",
"|  c #3B3396",
" . c #3C339B",
".. c #3C3899",
"X. c #3D35A3",
"o. c #1B3B86",
"O. c #40359C",
"+. c #413796",
"@. c #403986",
"#. c #4337A4",
"$. c #412FA5",
"%. c #185696",
"&. c #104D8C",
"*. c #274D91",
"=. c #097C88",
"-. c #197C86",
";. c #157A97",
":. c #0F699D",
">. c #26728D",
",. c #3C40AC",
"<. c #187AA1",
"1. c #2578A4",
"2. c #5B5B85",
"3. c #534D92",
"4. c #5B7A83",
"5. c #4E7984",
"6. c #6E6F8D",
"7. c #7A74A5",
"8. c #7A77A5",
"9. c #756EA4",
"0. c #675585",
"q. c #957A87",
"w. c #827CB2",
"e. c #008E8B",
"r. c #098788",
"t. c #178587",
"y. c #028C95",
"u. c #028D9B",
"i. c #088797",
"p. c #128395",
"a. c #1C8895",
"s. c #029494",
"d. c #03929C",
"f. c #019A9D",
"g. c #099498",
"h. c #0F9292",
"j. c #278784",
"k. c #36888F",
"l. c #088BA6",
"z. c #1987A4",
"x. c #0394A3",
"c. c #0C95A3",
"v. c #019BA3",
"b. c #0596AA",
"n. c #1694A9",
"m. c #569797",
"M. c #4B8488",
"N. c #748383",
"B. c #50A29E",
"V. c #61A39F",
"C. c #50A3A9",
"Z. c #6DB0B6",
"A. c #73BCC2",
"S. c #979A9C",
"D. c #928987",
"F. c #A69495",
"G. c #B59C9B",
"H. c #AE8C91",
"J. c #989BA4",
"K. c #9FA5AD",
"L. c #85A9B0",
"P. c #A5A6A8",
"I. c #B4AAAB",
"U. c #BAA9A8",
"Y. c #B9B1AF",
"T. c #A8A9B3",
"R. c #B9B6B9",
"E. c #AFB1B6",
"W. c #A68EA6",
"Q. c #C5B6A9",
"!. c #C3B9B3",
"~. c #CAACAA",
"^. c #8EC1BC",
"/. c #BEC0B3",
"(. c #C6C2B2",
"). c #B9BBC5",
"_. c #8EC0C1",
"`. c #BFC1C5",
"'. c #C5C5C6",
"]. c #C4C4CB",
"[. c #CACACE",
"{. c #CCCCD1",
"}. c #D4CDD8",
"|. c #CED0D4",
" X c #D2D2D4",
".X c #D4D4DA",
"XX c #DBDBDD",
"oX c #D8D6D9",
"OX c #D2C8C6",
"+X c #EDDBDC",
"@X c #EDE7DB",
"#X c #F6E6D9",
"$X c #DDDDE1",
"%X c #D9D7EB",
"&X c #DBD9F4",
"*X c #E1DFF7",
"=X c #E7DAE9",
"-X c #DEE3E4",
";X c #DCFFFF",
":X c #D5FFFF",
">X c #E3E3E5",
",X c #E6E5E9",
"<X c #EBEBEC",
"1X c #ECEBE8",
"2X c #FAECE3",
"3X c #EEF0EF",
"4X c #FEF9EE",
"5X c #F9F4E9",
"6X c #EEEDF1",
"7X c #E9E8FB",
"8X c #F0EFF4",
"9X c #E4FFFF",
"0X c #EDFFFF",
"qX c #E9F5F1",
"wX c #F4F4F5",
"eX c #FBF4F5",
"rX c #F6FCF3",
"tX c #FDFDF5",
"yX c #F6F5FA",
"uX c #FBF6FB",
"iX c #F4FFFD",
"pX c #FFFFFD",
"aX c #FFFDFF",
"sX c #FFFCFF",
"dX c #FCFFFF",
"fX c #FFFEFF",
"gX c white",
"hX c #FEFFFF",
"jX c #FEFDFD",
"kX c #FDFDFD",
/* pixels */
"kXkXpXpXpXpXpXpXsXsXsXsXpXpXpXpXkXkXrXdXwXwXpXyXuXpXwXpXkX5XtXrXdXdXdXpXpXpXpXpXsXsXsXsXsXsXpXpXpXpX",
"kXkXpXpXpXpXpXpXpXpXpXpXpXpXpXpXkXrXrXpXpXjXpXpXpXsXpXpXeXtXkXtXpXpXpXpXpXpXpXpXpXpXpXpXpXpXpXpXpXpX",
"kXkXpXpXpXpXpXpXpXpXpXpXpXpXpXpXpXpXpXR.Y.Y.I.P.Y.Y.I.I.!.I.I.sXpXpXpXpXpXpXpXpXpXpXpXpXpXdXdXdXpXpX",
"kXkXpXpXpXpXpXpXdXdXdXdXdXdXdXpXpXuX+X@   . X X   .     O . O +XsXsXpXpXpXpXpXpXpXdXdXdXdXdXdXdXpXpX",
"pXpXpXpXpXpXdXdXiXiXiXiXdXkXkXkXkXtX1X@ X o o + + + $ o X X # 1XkXpXpXpXpXpXpXdXdXdXiXiXdXdXdXdXpXpX",
"pXpXpXpXpXdXdXdXiXiXiXiXkXkXkXkXtXtX5X@ $ : & & & & : : = $ # @XkXpXpXpXpXdXdXdXdXdXdXdXdXpXpXpXpXpX",
"pXpXpXpXpXdXdXdXiXiXdXkXkXkXkXkXtXtX@X# f ( ( ) ) ( E I I > @ @XkXpXkXkXkXkXkXkXkXkXpXpXpXpXsXsXpXpX",
"pXpXpXpXdXdXdXdXdXdXkXkXkXkXkXkXkXkX5Xj Y Y H R L D R R h f j 5XkXpXdXkXkXkXkXkXkXkXpXpXpXsXsXsXpXpX",
"pXpXpXpXpXpXdXpXkXpXeXpXjXpXeXpXkXpXeXq.q.q.H U H T T U Y K B 2XjXkXpXkXkXkXkXkXkXkXpXpXpXsXsXsXpXpX",
"pXpXpXpXpXpXpXpXpXpXjXpXsXsXuXpXkXeXpXA }.=X9 v H.q.v = +X~.Y tXpXpXpXjXjXkXkXtXkXkXpXpXpXpXpXpXpXpX",
"dXdXdXpXpXpXpXpXjXeXeXpXsXsXsXpXtX4XeXB D.F.j B f j h h G.I g 2XeXpXsXsXsXpXkXkXkXkXpXdXdXiXiXdXpXpX",
"iXdXdXpXpXpXpXpXpXpXpXpXuXpXpXpXtX5X#XP h l ( f * * g ( 1 D 1 2XsXpXpXpXpXuXpXeXkXkXdXdXiXiXiXiXdXpX",
"iXdXdXpXpXpXpXpXuXuXpXyX0XiX0XiXkXtX4Xl f g 2 & - & - < 1 1 g 4XiX9X0XiXdXdXpXpXkXkXpXdXdXiXiXiXdXpX",
"dXdXdXpXpXpXsXpXsXpXdXiX0X9X;X;X;X0XqXk > 2 - 1 - < 1 - g > k -X9X:X;X;X9XiXiXdXpXkXpXpXpXdXdXdXpXpX",
"dXdXpXpXpXsXsXpXpXdXiX9X;X_.m.V.C.C.M.t ; , > * 2 * > d q q s m.B.k.B.m.^.9X0XiXpXpXpXpXsXpXpXpXpXpX",
"dXpXpXpXpXpXpXpXpXdXiX0X;XV.i u r.=.y i t q % , > = ; 0 t i y =.r.y t.i V.;X0XiXpXkXkXpXsXsXsXpXpXpX",
"pXpXpXpXpXpXkXkXkXkXdXiX;XZ.=.g.d.y.=.=.>.p w q q q w p -.;.i.y.f.s.h.-.Z.;X9XiXpXkXkXkXpXpXpXpXpXpX",
"pXpXpXpXpXdXiXiXtXtXkXiX9XZ.=.g.g.y.y.i.p.;.-.u e w u r.l.l.d.d.v.f.g.t.A.;X0XdXkXkXkXkXpXpXpXpXpXpX",
"kXkXpXpXpXpXdXkXtXkXkXpX0XZ.u a.h.r.e.s.d.d.s.e.! u Q s.v.b.g.h.s.h.a.p Z.9XiXpXpXkXkXkXpXpXsXpXpXpX",
"kXkXpXpXpXpXpXpXkXkXpXsXiXL.a k.k.j.Q e.d.v.v.y.r.Q e.f.v.d.t.t.j.j.k.s L.0XiXpXpXpXpXpXpXpXpXpXpXpX",
"iXkXpXpXsXsXpXpXkXkXjXjXpXK.n n S ^ ~ t.i.b.b.l.=.=.y.x.x.p.p m 4.4.4.n P.pXpXpXpXpXdXdXdXiXiXdXpXpX",
"iXiXpXpXsXsXsXpXpXkXjXjXsXI.N S B A ^ j.=.i.l.n.p.p.u.x.i.-.m N.A S A B I.sXsXpXpXpXdXiXiXiXiXdXpXpX",
"iXiXpXpXsXsXsXpXpXpXtXtXjXU.B J F C V p =.i.l.n.z.p.u.x.d.-.m A P l B B Y.jXjXpXpXpXpXpXpXpXpXpXpXpX",
"iXkXpXpXsXuXsXpXpXpXtXtXtXU.D D G J b a t.c.n.l.p.i.d.v.c.t.a V P F F l Q.kXjXpXpXpXpXpXpXsXsXsXpXpX",
"dXdXpXpXsXsXsXsXdXiXiXtXtXQ.D L L P M p r.x.b.u.e.s.f.f.f.r.a V F G G l Q.tXkXpXdXdXpXpXsXsXsXsXpXpX",
"pXpXpXpXsXsXsXpXpXiXiXiX4XQ.g G G J b s r.x.c.u.s.s.s.f.f.r.a b F G G l Q.tXkXdXdXdXpXpXpXsXsXpXpXpX",
"pXpXpXpXpXpXpXpXpXiXiXiXtX(.F E E L N m a.c.c.d.r.e.s.f.c.a.m N L W I F Q.4XtXdXdXdXdXdXpXpXpXpXpXpX",
"sXpXpXpXpXpXpXpXpXiXiXiXrXQ.l G L K N m a.z.z.n.i.h.n.n.n.-.m N F G G l Q.tXkXpXdXpXpXpXpXpXdXpXpXpX",
"sXpXpXdXkXkXkXpXpXpXdXdXkX!.l I I K T n >.;.:.<.z.z.<.<.z.>.5.A P P P C (.tXkXkXpXpXsXsXsXsXsXpXpXpX",
"sXpXdXiXiXiXkXsXsXsXpXpXkX!.J I K K U c r %.&.%.%.&.&.%.1.k.5.S B J C B R.tXkXtXpXsXsXsXsXsXsXpXpXpX",
"sXpXiXiXiXrXkXkXsXsXsXuXeXY.h K h h B 8 6 *.} ,.} } ' *.%.>.m V j h J l !.tXkXkXpXsXsXsXpXpXdXdXpXpX",
"sXpXdXiXiXiXkXkXsXuXsXpXpX XD.G.F.F.W.0.] X.{ $. ... .' o.*.4.S.F.G.G.D.OXtXjXkXsXpXpXpXpXdXiXiXpXpX",
"pXpXpXdXdXdXpXpXpXpXpXpXpXpXsXsXpXsXsX7.3  .O.{ X. . .....' 8.uXsXjXsXpXpXpXpXpXsXpXpXpXpXpXpXpXpXpX",
"pXpXpXpXpXpXpXpXpXpXpXpXpXpXpXsXpXuXdX8.3  ...|  . . .O. .` 9.sXuXsXpXpXpXpXpXpXpXpXpXpXpXpXpXpXpXpX",
"pXpXpXpXpXpXpXpXpXpXpXpXpXpXpXsXdXuXuX8.3 ..| | |  ...O.| ` 7.sXuXkXpXpXpXpXpXpXpXpXpXpXpXpXpXpXpXpX",
"pXpXpXpXpXpXpXpXpXpXpXpXpXpXpXpXdXuXdX8.4 ..| | | | ..O.| ` 7.sXuXkXpXdXpXpXpXpXpXpXpXpXpXpXpXpXpXpX",
"pXpXpXpXpXpXpXpXpXpXpXpXpXuXuXuXdXuXdX8.4 | | | |  ...O.| ` 7.pXuXkXkXdXpXpXpXpXdXdXpXpXpXpXpXpXpXpX",
"pXpXuXuXuXuXdXpXpXpXpXkXkXkXkXkXkXuXdX8.4 | | |  . .| | | ` 7.pXuXkXkXkXkXuXkXkXkXkXkXkXpXpXpXpXpXpX",
"pXpXsXuXdXdXdXpXkXkXkXkXyXyXyXyXuXyXdX8.3 { [ | X.{ { { { _ 7.pXyXyXyXyXkXkXkXkXkXkXkXuXuXuXuXuXpXpX",
"pXpXsXsXdXdXdXpXwXwXwXwXwXwXwXyXyXyXuX8.3 [ [ { X.{ { [ [ _ 7.pXyXwXwXyXyXyXyXyXyXyXkXkXkXkXkXuXpXpX",
"kXtXkXkXkXkXwXwXwXwXwXwXwXwXwXwX8X7XuXw._ X. . .{ X. .#.#._ 9.yX6X6XwXwXyXyXyXwXwXwXyXkXkXuXuXuXkXkX",
"kXwXwXwXwXwXwXwXwXwXwXwX<X<X<X<X7X7X8X7._ #...| #.X.[  .#.| w.uX7X<X<X6X6X6X6X6XwXwXwXyXyXkXkXkXkXkX",
"kXwXwXwXwXwXwX<X<X<X1X1X1X>X>X>X&X&X7X9._ O.| | ..| ` +.O._ 9.*X=X>X,X<X6X6X6XwX6X6XwXwXyXyXyXyXkXkX",
"wXwXwXwXwXwX<X<X1X,X>X>X>X>XXXXX.X%X&X9.4 ] ] ] ] ] @.3.+.4 9.*X.X.X$X$X>X>X,X,X6X6X6X8XwXwXyXwXyXwX",
"wXwXwXwXwX<X<X1X1X>X>X@XXXoX X{.].).).6.5 7 5 5 5 5 5 7 5 5 6..X{. XoX$X$X$X>X,X<X<X6X6XwXwXyXwXyXwX",
"wXwXwXwXwX<X<X1X1X>X@XoXoX X'.).).T.P.Z 2.6.2.x 2.2.x 2.2.2.6.J.T.R.].{..X$X>X<X,X,X<X6X6XwXwXwXyXwX",
"kXwXwXwXwX3X<X<X1X>XXXoXoX X'.R.S.D.A d x x c z z z z x 2.x d k D.S.T.R.].{..XXX>X>X,X<X6X8XwXwXwXwX",
"kXwXwXwXwXwX<X<X1X>XXXXXXXoX{.'.'.E.P.N.6.6.Z S b Z Z Z x Z A D.S.P.R.'.[.{..XoX$X>X,X1X6X6X8XwXwXwX",
"wXwXwXwXwX3X<X1X,X>X>X$X$XoX.X X[.].`.R.E.T.T.K.J.J.J.J.T.T.E.R.).`.].{.|..XoXXX>X>X>X1X<X<X6X<XwXwX",
"wXwXwXwXwX3X<X1X,X>X>X-X$XXX.X X|.{.[.].).).).).).).).).).].[.{.].[.|..X.X$X-X>X>X>X>X1X<X<XwXwXwXwX"
};
