/* XPM */
static char *d4ba7349016747c9b330cb7e89bfc265Ce3kZqo3OwidJogG[] = {
/* columns rows colors chars-per-pixel */
"50 50 145 2 ",
"   c #020104",
".  c #05040A",
"X  c #08060E",
"o  c #0A090E",
"O  c #070610",
"+  c #0B0712",
"@  c #0C0914",
"#  c #0E0B19",
"$  c #100A16",
"%  c #100719",
"&  c #120D1C",
"*  c #12101E",
"=  c #140E21",
"-  c #180F23",
";  c #190F28",
":  c #161123",
">  c #191126",
",  c #1C142C",
"<  c #1F1631",
"1  c #1E1930",
"2  c #20162E",
"3  c #211732",
"4  c #231935",
"5  c #261B3A",
"6  c #291C3C",
"7  c #2C1E42",
"8  c #301F43",
"9  c #2F2145",
"0  c #2E2044",
"q  c #2E2246",
"w  c #2C2043",
"e  c #302044",
"r  c #35234B",
"t  c #34234D",
"y  c #34244B",
"u  c #352450",
"i  c #3D2565",
"p  c #3C2865",
"a  c #3F2169",
"s  c #3D2268",
"d  c #3F296B",
"f  c #431E6E",
"g  c #451F6D",
"h  c #402D65",
"j  c #46206D",
"k  c #432B6B",
"l  c #45316E",
"z  c #452472",
"x  c #4E2573",
"c  c #4A2473",
"v  c #482E76",
"b  c #4F2D79",
"n  c #4A2D79",
"m  c #53317D",
"M  c #4C2D81",
"N  c #714DB7",
"B  c #7743BF",
"V  c #7644BF",
"C  c #7544BE",
"Z  c #724BB8",
"A  c #704ABB",
"S  c #734BBB",
"D  c #744DBA",
"F  c #7449BD",
"G  c #764BBE",
"H  c #764FBA",
"J  c #7751BE",
"K  c #753EC2",
"L  c #7D3DC7",
"P  c #7C3EC7",
"I  c #7B3DC5",
"U  c #7641C3",
"Y  c #7544C1",
"T  c #7844C3",
"R  c #7942C4",
"E  c #7B42C5",
"W  c #764EC3",
"Q  c #7A4DC6",
"!  c #7A42C9",
"~  c #7C46CD",
"^  c #7D4ACB",
"/  c #7C4CCA",
"(  c #7750C7",
")  c #7A54C5",
"_  c #7B53C5",
"`  c #7E50CA",
"'  c #7F53CC",
"]  c #7D52C9",
"[  c #7E43D1",
"{  c #7E49D1",
"}  c #803CC7",
"|  c #803DCA",
" . c #833ECD",
".. c #853DCD",
"X. c #853DCD",
"o. c #823ED4",
"O. c #883FD6",
"+. c #863FD9",
"@. c #893FDA",
"#. c #8546CB",
"$. c #8344CD",
"%. c #8B42CF",
"&. c #814CCD",
"*. c #8156CA",
"=. c #8350CF",
"-. c #8252CC",
";. c #8344D3",
":. c #8443D4",
">. c #8D45D7",
",. c #8A44D6",
"<. c #8149D2",
"1. c #834ED2",
"2. c #844CD3",
"3. c #8748D5",
"4. c #844BD2",
"5. c #8A4BD4",
"6. c #8641D8",
"7. c #8743DB",
"8. c #8B40DB",
"9. c #8843DA",
"0. c #8C43DA",
"q. c #8844D9",
"w. c #8B47DA",
"e. c #8C42D9",
"r. c #864CDB",
"t. c #8B4AD8",
"y. c #8A4CDC",
"u. c #9245DC",
"i. c #9748DF",
"p. c #934ADC",
"a. c #984BDE",
"s. c #8652D1",
"d. c #865AD6",
"f. c #8853D9",
"g. c #8C4BE3",
"h. c #8C49E2",
"j. c #9346E0",
"k. c #9647E1",
"l. c #9646E1",
"z. c #9448E0",
"x. c #954CE3",
"c. c #9A4AE1",
"v. c #9E4CEF",
"b. c #9C4BEC",
"n. c #9150E2",
/* pixels */
".   .   + . & 5 & @ 0 5 #       . + X 3 , X , 0 , .   .   @ . & 5 & @ 0 5 #       . + X 3 < X , 0 , ",
"  > 7 , + & 5 &   # 5 .   X 6 5 & X , < X   3 :     > 7 , + & 5 #   # 5 .   X 6 5 & X , < X   3 :   ",
"@ 7 : & +   . X   . X     4 4 & # . . . .   X X   @ 0 : & o   . .   . X     4 4 & # . . . .   X X   ",
"& # . @ > &   @ 6 +     X = O . = : +   3 ,       & # . @ > &   @ 6 +     X = + . = - +   3 ,       ",
". + 4 3 2 , @ . X   , = . . - 5 , , >   +   # , X . + 4 3 , , @ . X   , * . . - 5 , , >   +   % , X ",
"+ & 3 @ @ 1 <     & , # @ + , > + : 5 &   X > & @ + & 3 # @ 1 <     & > # @ o 2 > + : 5 #   . > = @ ",
"& .   X X : + @ @ @ . + , +     X # & X @ @ +   : :     X X : + @ @ @ . + , +   . X @ & X @ @ +   = ",
"@ 4 & . X + > r , & 2 = . , 3 + X X # 6 0 = , , @ + 4 & X X + > t 2 & 3 = . > < X X X @ 6 7 & > , @ ",
"3 5 + . + @ & =   . @ & o 6 : . . @ @ : +   . & X , 5 X . + @ & &     @ & + w , . X @ @ > +   X & X ",
"@ X . . + , + + +     X @ - @ & @ < 3 # & % @ + @ = & @ % = 3 - # & @ + @ @ @   X . > : . # .   . + ",
".   .   X X = 4 # @ 7 , b >.} ..B S ! S V L F F U #.|  .L S T T H L E S / s     .   + + 3 , X , 0 , ",
"  > 7 , + # 5 &   # 5   x v.i.t.*.1.8.3.;.q.' ] 6.j.k.z.=.*.q.0.<.8.4._ g.g   7 5 & X , 3 X   3 -   ",
"@ 7 : & +   . .   . +   p r.&._ :.0.&.~ Q p.,.] ] ~ &._ &.0.3.<.Q 4.u.~ d.i > 4 & & . . . .   X .   ",
"& # . @ > &   @ 6 +     k y.Q u.u.] _ Q Q _ ;.u.=.&./ 4.k.4._ _ Q _ Q 0.x.l + + . = : +   3 ,       ",
". + 4 3 , , @ . X   2 o g h.~ 6.Q _ / 6.6.<._ 4.o.6.~ :.;._ Q ;.6.,._ _ h.z   , 5 , , >   +   # , X ",
"+ & 3 # @ 1 <     & , . c r.~ 6.^ Q Q 0.a.6.Q ^ o.;.Q 6.;.Q ] ;.k.u.~ _ 7.c   3 > + : 5 &   . > : + ",
"& .   X X : + @ @ @ X   M 2._ q.i.4.~ 6.a.u.Q Q ~ ~ ] &.u.p.~ :.0.c.<.Q r.n .     X # & X @ @ +   : ",
"@ 5 & . X + > r , & 3 + z x.4.Q 5.c.6.u.p._ &.a.:.;.p.Q / a.u.6.i.&._ ,.v.s & 3 X X X # 6 7 & > , @ ",
"3 5 @ . + @ & =   . # o s y.u.p._ Q [ { _ &.u.5.Q ~ ,.c.=._ [ ;.] ] 8.u.f.v 3 , . X @ # > @   X & X ",
"@ X . . + , + + +   .   k 2.;.u.;.^ 6.^ ;.0.&._ ] _ ! p.8.~ ;.:./ 0.,._ d.k . . X . > : . # .   . + ",
".   .   X X = 4 # # 7 , m x.,.@.&.Q ;.Q $.6.Q Q ~ t.0.8.6.Q [ ~ Q 6.&.Q r.z     . . X + 2 , X , 7 , ",
"  > 7 , + # 5 &   # 5   x b.p.3._ &.@.;.[ ,.] Q 6.u.u.u.&._ :.,.^ 6.&.) y.g   6 5 & X , 3 X   3 -   ",
"@ 7 : & + . . .   . +   p r.&._ :.0.4.&.Q p.8.] ] ~ ;.*.&.0.3.<.Q 4.u.$.d.p > 4 & & . . .     X .   ",
"& # . @ , &   @ 6 +     k y.Q u.u.] ) Q Q _ ;.0.=.&.Q 4.k.4._ _ Q _ / 0.n.l + + . = : @   2 ,       ",
"X X 4 3 , , @ . X   2 o j h.~ 8.Q _ / :.6.<._ 4.o.+.~ :.;._ Q ;.6.6.] _ h.z   , 5 , , >   +   # , X ",
"+ & 3 # + 1 <     & , . z r.~ 6.^ ( Q 0.c.6.Q ^ o.;.Q 6.;.Q ] ;.i.i.~ _ 7.c   3 > @ : 5 &   X > = + ",
"& .   X X : + @ @ @ .   M 2._ ,.i.4.~ 6.i.u.Q / ~ ~ ] &.j.p.~ :.0.c.<.Q r.n .     . # & X @ @ +   : ",
"@ 4 & . X + > y , & 3 + z k.4.Q 3.c.6.u.t._ &.i.:.;.u.Q / a.u.o.k.&._ t.v.s & 3 + X X # 6 8 & > , @ ",
"3 5 + . + @ & = . . # o s y.u.p._ Q [ <._ &.u.5.Q ~ ,.c.=._ [ ;.Q ] 8.0.f.v 3 , . X @ # > +   X & X ",
"@ X . . + , + + +   .   k 2.;.u.;.^ 6.^ ;.u.Q _ ] _ ~ p.0.~ ;.:./ 0.,._ d.d . . X . > : . @ .   . + ",
"    .   + O = 4 # @ 7 , m x.O.@.&.Q ;.Q $.:.Q Q ~ t.0.@.6.Q [ ~ Q 6.&._ r.z     .   + + 3 , X , 7 , ",
"  > 7 , X # 5 =   # 5   c b.u.3._ &.8.;.;.,.] Q 6.u.u.u.-._ :.,.~ 6.&._ y.g   7 5 & X , 3 X   3 -   ",
"@ 7 : & +   . .     +   p r.&._ :.0.4.~ Q u.8.] _ Q ;._ &.0.3.<.Q 4.u.~ d.p > 4 & & . . . .   X .   ",
"& # . @ > &   @ 6 +     k y.Q u.p.] ) Q Q _ ;.u.=.&.Q 4.k.4._ _ Q _ Q 0.x.l + + . & : +   3 ,       ",
". + 4 3 , , + . X   2 o j h.~ 6.Q _ ^ :.6.<._ 4.o.6.~ :.:._ Q ;.6.8._ _ h.z   , 5 , , >   +   # , X ",
"+ & 3 # @ 1 <     & , . c r.~ 6.^ Q Q e.c.6.Q ^ o.;.Q :.;.Q ] :.k.u.~ _ 7.c   3 > + : 5 &   . > = + ",
"&     X X : + @ @ @ X   M 2._ ,.i.4.~ 6.z.u.Q / ~ ~ ] &.u.t.~ ;.>.a.<.Q r.n .     . # & X @ @ +   : ",
"@ 4 & . X + > y , & 4 + z k.&.W 4.c.6.u.p._ &.i.;.;.u.Q / p.0.6.i.&._ 5.b.s & 3 X X X # 6 7 = > , @ ",
", 5 + . + @ & = . . # o s g.i.p._ &.:.<._ 3.j.t.Q { t.c.s._ :.:.' ] 0.p.f.v 3 , . X @ # > +   X & X ",
"@ X . . + , + + +   .   h Q I %.I Y L U $...V J W H K #.$.C E K Q ..L N -.d . . + . > : . # .   . X ",
".   .   X X : 4 # @ 7 5 & X + + @ = % 6 6 % 5 u 4 @ . @ + & % , 7 ; & y 7 =     .   + + 3 , X , 7 , ",
"  > 7 , + # 5 &   # 5 .   . 5 4 # . , , .   , &     : 7 , X # 5 &   @ 4 .   X 6 5 & X , 3 X   3 :   ",
"@ 7 : & +   . .   . X     4 4 & #   . . .   X X   @ 0 = & + . . .   . X .   4 4 & & . . . .   X .   ",
"& # . @ > &   @ 7 +     X = + . = : +   3 ,       & # . @ > &   @ 6 +     X = O . = : +   3 ,       ",
". X 5 < , , @ . X   , & . . - 5 , , >   @   # , X . + 4 3 , , @ . X   2 & . . - 5 , , >   +   # , X ",
"o & 1 # @ 1 <     & > # @ + , > + : 5 &   . > & @ + & 3 # @ 1 <     & > @ @ + , > + : 5 &   . > = + ",
"&     X X : + @ @ @ . X , +     . # & X @ $ +   : :     X X : + @ @ @ . o , +     X # & X @ # +   : ",
"@ 5 & . X + > y 1 & , = . > 2 X X X # 6 e = > , @ + 4 & . X @ > y , & 2 = . > 2 X X X # 6 7 & , , @ ",
"2 5 + X + @ & : . . $ & @ 7 > . X @ # > @   X & + , 5 @ X + @ & : . . @ & @ 6 > . X @ @ > @   X = + ",
"@ + . X @ , @ . X .     X # . + . > > X + .     . @ + . X @ , @ . X       X # . + . > : . X .     . "
};
