/* XPM */
static char *d5ed4a4893b94506a182b300a51acfa6Oy2cHGwqB7cTfr0q[] = {
/* columns rows colors chars-per-pixel */
"50 50 256 2 ",
"   c black",
".  c #010101",
"X  c #020202",
"o  c gray1",
"O  c #040404",
"+  c gray2",
"@  c #060606",
"#  c #070707",
"$  c gray3",
"%  c #090909",
"&  c gray4",
"*  c #0B0B0B",
"=  c #0C0C0C",
"-  c gray5",
";  c #0E0E0E",
":  c gray6",
">  c #101010",
",  c #111111",
"<  c gray7",
"1  c #131313",
"2  c gray8",
"3  c #151515",
"4  c #161616",
"5  c gray9",
"6  c #181818",
"7  c #191919",
"8  c gray10",
"9  c #1B1B1B",
"0  c gray11",
"q  c #1D1D1D",
"w  c #1E1E1E",
"e  c gray12",
"r  c #202020",
"t  c gray13",
"y  c #222222",
"u  c #232323",
"i  c gray14",
"p  c #252525",
"a  c gray15",
"s  c #272727",
"d  c #282828",
"f  c gray16",
"g  c #2A2A2A",
"h  c gray17",
"j  c #2C2C2C",
"k  c #2D2D2D",
"l  c gray18",
"z  c #2F2F2F",
"x  c gray19",
"c  c #313131",
"v  c #323232",
"b  c gray20",
"n  c #343434",
"m  c #353535",
"M  c gray21",
"N  c #373737",
"B  c gray22",
"V  c #393939",
"C  c #3A3A3A",
"Z  c gray23",
"A  c #3C3C3C",
"S  c gray24",
"D  c #3E3E3E",
"F  c #3F3F3F",
"G  c gray25",
"H  c #414141",
"J  c gray26",
"K  c #434343",
"L  c #444444",
"P  c gray27",
"I  c #464646",
"U  c gray28",
"Y  c #484848",
"T  c #494949",
"R  c gray29",
"E  c #4B4B4B",
"W  c #4C4C4C",
"Q  c gray30",
"!  c #4E4E4E",
"~  c gray31",
"^  c #505050",
"/  c #515151",
"(  c gray32",
")  c #535353",
"_  c gray33",
"`  c #555555",
"'  c #565656",
"]  c gray34",
"[  c #585858",
"{  c gray35",
"}  c #5A5A5A",
"|  c #5B5B5B",
" . c gray36",
".. c #5D5D5D",
"X. c gray37",
"o. c #5F5F5F",
"O. c #606060",
"+. c gray38",
"@. c #626262",
"#. c gray39",
"$. c #646464",
"%. c #656565",
"&. c gray40",
"*. c #676767",
"=. c #686868",
"-. c DimGray",
";. c #6A6A6A",
":. c gray42",
">. c #6C6C6C",
",. c #6D6D6D",
"<. c gray43",
"1. c #6F6F6F",
"2. c gray44",
"3. c #717171",
"4. c #727272",
"5. c gray45",
"6. c #747474",
"7. c gray46",
"8. c #767676",
"9. c #777777",
"0. c gray47",
"q. c #797979",
"w. c gray48",
"e. c #7B7B7B",
"r. c #7C7C7C",
"t. c gray49",
"y. c #7E7E7E",
"u. c gray50",
"i. c #808080",
"p. c #818181",
"a. c gray51",
"s. c #838383",
"d. c #848484",
"f. c gray52",
"g. c #868686",
"h. c gray53",
"j. c #888888",
"k. c #898989",
"l. c gray54",
"z. c #8B8B8B",
"x. c gray55",
"c. c #8D8D8D",
"v. c #8E8E8E",
"b. c gray56",
"n. c #909090",
"m. c gray57",
"M. c #929292",
"N. c #939393",
"B. c gray58",
"V. c #959595",
"C. c gray59",
"Z. c #979797",
"A. c #989898",
"S. c gray60",
"D. c #9A9A9A",
"F. c #9B9B9B",
"G. c gray61",
"H. c #9D9D9D",
"J. c gray62",
"K. c #9F9F9F",
"L. c #A0A0A0",
"P. c gray63",
"I. c #A2A2A2",
"U. c gray64",
"Y. c #A4A4A4",
"T. c #A5A5A5",
"R. c gray65",
"E. c #A7A7A7",
"W. c gray66",
"Q. c #A9A9A9",
"!. c #AAAAAA",
"~. c gray67",
"^. c #ACACAC",
"/. c gray68",
"(. c #AEAEAE",
"). c #AFAFAF",
"_. c gray69",
"`. c #B1B1B1",
"'. c #B2B2B2",
"]. c gray70",
"[. c #B4B4B4",
"{. c gray71",
"}. c #B6B6B6",
"|. c #B7B7B7",
" X c gray72",
".X c #B9B9B9",
"XX c gray73",
"oX c #BBBBBB",
"OX c #BCBCBC",
"+X c gray74",
"@X c gray",
"#X c gray75",
"$X c #C0C0C0",
"%X c #C1C1C1",
"&X c gray76",
"*X c #C3C3C3",
"=X c gray77",
"-X c #C5C5C5",
";X c #C6C6C6",
":X c gray78",
">X c #C8C8C8",
",X c gray79",
"<X c #CACACA",
"1X c #CBCBCB",
"2X c gray80",
"3X c #CDCDCD",
"4X c #CECECE",
"5X c gray81",
"6X c #D0D0D0",
"7X c gray82",
"8X c #D2D2D2",
"9X c LightGray",
"0X c gray83",
"qX c #D5D5D5",
"wX c gray84",
"eX c #D7D7D7",
"rX c #D8D8D8",
"tX c gray85",
"yX c #DADADA",
"uX c gray86",
"iX c gainsboro",
"pX c #DDDDDD",
"aX c gray87",
"sX c #DFDFDF",
"dX c gray88",
"fX c #E1E1E1",
"gX c #E2E2E2",
"hX c gray89",
"jX c #E4E4E4",
"kX c gray90",
"lX c #E6E6E6",
"zX c #E7E7E7",
"xX c gray91",
"cX c #E9E9E9",
"vX c #EAEAEA",
"bX c gray92",
"nX c #ECECEC",
"mX c gray93",
"MX c #EEEEEE",
"NX c #EFEFEF",
"BX c gray94",
"VX c #F1F1F1",
"CX c gray95",
"ZX c #F3F3F3",
"AX c #F4F4F4",
"SX c gray96",
"DX c #F6F6F6",
"FX c gray97",
"GX c #F8F8F8",
"HX c #F9F9F9",
"JX c gray98",
"KX c #FBFBFB",
"LX c gray99",
"PX c #FDFDFD",
"IX c #FEFEFE",
"UX c white",
/* pixels */
"-X-X&XF.M.C.M.V.b.-XbXhXaXwXeX7XOX%X_.B.n.U.jXjXhXtXtXrX%X#XOXK.n.Z.0.*.*.y.S.n.I.=X@X=XeXtXyXjXlXlX",
"=X-X&XF.b.V.B.B.v.;XbXjXaXtXuX,XoX@X].M.m.K.lXkXkXwXrXyX$X+X$XH.m.C.9.&.%.t.Z.b.T.$XXX:XyXeXyXcXkXkX",
"-X=X-XJ.M.m.C.B.b.*XzXkXuX9XdX6XOX$X[.M.c.U.hXzXlXeXwXtX+XoX*XG.m.Z.6.#.*.u.C.b.P.$XXX:XeXwXrXhXlXlX",
"wX7X8XH.n.M.@X8X<XaXcXzXqXOX=X(.C.Z.E.4X8X:X`.E.).dXkXjXuX7X7X6X3X7XF.w.q.i.f.r.T.tX9X3X*X&X%X-X*X*X",
"uXyXiXJ.m.b.>XsXuXdXhXlX9X}.%X/.b.v.Y.aXiX4XD.L.U.fXkXgXrXrXtXyXtXsXP.r.p.s.i.w.J.sXyX4XXX@X@XOXOXOX",
"eXiXwXL.c.v.=XpXeXgXcXxX7X X*X/.V.V.E.rXeX8XL.G.Y.jXbXlXiXuXwXyXrXsXP.r.p.s.u.e.T.sXuX8X#X.X+X+X+X+X",
"T.W.R.OX:X>X.X^.(.+X:X>X*XoX&XL.:.<.n.iXtX8XOX&X+X;X,X,X$X-X>X]./.[.d.-.<.0.p.y.l.D.n.W.6X8X5XoX+X+X",
"v.n.c.8XaXiX~.G.G.).OXOXoXXX$XH.+.+.u.pXrXqX1X:X<XoXoXOXOXOXOXY.D.L.w.%.#.4.f.p.t.t.7.S.yXwXqXOXOXOX",
"C.N.N.4XfXiX).S.D.).%X@X%X$X&XL.@.+.h.sXrXrX,X;X-X#X@XOXXXOX#X~.P.W.y.+.-.4.e.e.y.u.t.F.dXpXtX%X*X*X",
"M.V.Z.Q.^.!.$X=X:X%XOXoX).J.Q.x.&.#.u.2X-X:X$X=X=X>X<X4X*X+X+Xc.q.u.1.*.&.n..X XJ.a.t.j.Y.P.G.k.j.j.",
"A.M.N.n.b.k.:XpXwX-XXX%XW.j.A.u.$.%.r.OX.X+XXXoX$XyXtXwX#X X&Xq.@.&.=.:. .U.lXgXXXy.i.e.r.w.6.o.+.+.",
"m.c.m.n.n.n.:XhXgX5X#X*X).B.H.s.-.$.i.-X=X@X#X#XOXpXfXsX<X#X&Xw.| O.@.%.| I.gXaX'.7.a.t.p.s.y.-.*.*.",
"!.(.).[.[. XY.K.K.Z.m.M.j.r.i.8.=.#.9.Y.J.R.+XoXOXU.J.G.J.K.L.H.K.P.V.n.b.W.+X+X~.z.B.z.a.p.t.7.9.9.",
",X:X=XyXdXaXu.] @.O.@.#.%.$.$.*.;.*.4.h.u.n.oX@X[.#.o.@.9.y.r.;XzXjX3X&X;X).G.J.P.P.U.S.y.u.p.x.l.l.",
"&X%X*X0XiXaXs.$.-.%.@.+.$.&.@.#.+.o.:.j.z.m.oX<X+X1.&.$.q.w.5.%XyXrX*X.X&X/.F.K.H.K.L.C.r.t.u.d.g.g.",
"5X9X7X-X%X>Xh.1.4.d.B.V.l.h.k.z.m.C.x.h.d.f.K.G.A.6.,.9.G.Q.E.2XuXrX&X).'.).!.^.Q.G.T.G.C.C.B.f.f.f.",
"zXxXzXY.F.H.b.l.f.@XkXaX6X%X&X3XaXkX;X0.d.e.+.$.#.u.d.i.aXVXbXiX0XpX'.F.K._.%X%X].P.G.W.@X-X].i.u.u.",
"cXcXxXQ.L.K.b.g.s..XpXtX2XOX@X-XuXiX&Xe.u.r.*.*.=.y.u.t.iXmXvXfXiXaX}.D.F./.#X$X`.F.L.!.&X&X[.p.a.a.",
"8X9X8X'.W.W.c.h.y.{.wX0X*X_.}.oX2X:X Xk.h.f.<.,.6.r.p.d.@X4X4X:X:X-X{.R.Q.`.oXoX[.Y.W.W.^.(.R.0.q.q.",
"L.G.K.OX-X3Xm.y.t./.;X&X_.G.I.H.N.N.J.F.U.H.u.i.i.y.p.i.r.e.e.C.K.K.`.OX%X[.~.W.'.@X&X^.w.y.r.#.&.&.",
"I.J.K.*X-X>Xc.r.w./.2X<X[.J.U.F.L.G.H.I.Y.S.y.i.u.p.e.r.u.s.w.F.E.J.[.$X$X[./.).'.*X*X`.e.s.e.=.&.&.",
"Y.L.I.}.@X@XV.p.a.U.oX.XW.A.K.A.n.m.M.F.F.V.j.f.g.z.v.n.x.d.j.C.Z.B.~.}.[./.R.R.~.(.(.P.a.u.0.2.>.>.",
"H.J.P.P.P.U.S.B.B.z.d.p.i.y.p.9.%.=.,.u.a.l.H.J.T.9XsX0X$X%X$Xw.$.&.w.j.f.d.u.a.9.*.*.1.u.d.s.d.k.k.",
"I.P.K.L.H.J.C.N.Z.s.r.y.p.y.y.8.&.$.>.s.r.p.P.P.I.tXqXtX%X X%Xw.+.$.0.z.h.s.e.p.6.%.$.,.i.i.y.l.j.j.",
"L.G.D.E.E.I.I.F.J.v.f.l.j.d.z.w.*.=.<.l.d.v.U.P.T.rXeXeX&XoX=Xu.>.>.t.l.d.d.k.j.y.>.<.3.i.i.p.h.h.h.",
"p.a.h.5XhXgXsXuXpXdXiXaXrX7XeX'.0.r.V.rX6X3X+X.XOXqXuXrXyXrXqX&X[.XXZ.d.s.(.iX6X>X[.+XQ.i.p.s.i.i.i.",
"i.y.r.eXbXjXlXcXlXcXzXbXjXwXdX{.u.w.N.sXtXeXOX#X%XwXtX8XwXyXuX=X+X*XG.d.a.].sXuX7XOX*X/.r.p.y.u.i.i.",
"s.a.p.0XcXfXkXgXgXkXzXfXyX8XgX}.r.y.D.eXeX8X$XXX@XrXrXaXtX0XsX&X|.&XS.s.f.~.uXyX2X.X@X~.i.u.s.a.p.p.",
"y.i.i.XX-X&X:X,X3X%X&X*X>X:X3XP.$.=.4.b.v.n.F.Z.J.0XrXqXeXaXqXP.c.x.Q.}.}.S.6.8.t.x.z.A.<X2X,X2X<X<X",
"a.p.i.]..XOX#X-X=XOX@XOX@X%X;XL.O.-.:.u.q.i.B.C.Z.qXtXyXwXtXuXD.y.p.E.*X;Xx.X.+.>.r.q.D.hXtXiXyXiXiX",
"s.u.a.[.*X#X=X*X=X*XOXoX%X<X5XI.O.&.1.a.p.g.B.V.G.eXdXuXyXqXaXD.s.g.Q.&X-Xm.O.-.2.h.7.B.uXwXeXrXeXeX",
"<.:.<.j.B.z.{.>X=X%XoX%XL.7.p.e.e.7.e.y.i.p.x.x.l.d.u.s.XX;X;X].^.'.M.0.r.t.w.7.B.-X&X,XyXwXwX=X-X-X",
"=.#.=.q.u.q.`.;X%X#XXX%Xb.o.O.2.a.s.a.a.s.p.k.l.j.@.+.+.).XX+X@X+X-Xd...@.4.f.t.T.gXiXpX0XrXrX.XoXoX",
"*.*.*.w.p.y. X5X,X;X$X,XV.$.&.<.i.e.0.9.w.t.d.k.y.;.$.-.[.;X*XOX#X:Xh.o.%.4.w.4.Y.yXeXrXyXyX9X@X@X@X",
"8.7.9.s.k.p.k.g.j.g.d.x.e.3.9.l.^.Q.`. XXX X^.~.T.f.t.q.h.g.f.C.C.D.s.8.6.J.>X@X*X,X;X:X<X2X>X].].].",
"d.u.d.d.j.x.<.+.$.%.$.O.4.j.t.D.1X;X7XiXiXeX$X#X@Xl.v.l.;.#...7.u.0.a.f.7.}.LXBXyXoXoX$X*X&X#X~.~.~.",
"s.i.i.s.y.s.%.@.+.@.#.O.3.h.r.G.2X*X1XyXrXeX@X&XOXg.p.f.#.O.%.q.s.u.i.p.9.}.NXzXeXXX@X@X>X-X$X`.'.'.",
"y.i.y._..X|.K.A.S.C.N.A.i.<.5.k.(.W.[.2X<X:XE.Q.W.].).}.Y.H.L.j.u.s.y.i.t.{.jXsX9X.X#XOX%X*XoXZ.V.V.",
"d.s.i.rXCXmXwX>X1X;X%X2XV.+.&.7.V.m.G.OXXX[.m.n.C.yXaXyXaXjXlXC.e.p.i.d.8.~.pXqX6X|.@X@X+X@X'.9.t.t.",
"e.w.w.qXxXgX<X*X-X@X|.%Xn...@.q.S.Z.P.:X=X+XA.V.G.9XiXtXyX0XaXm.0.y.t.d.0._.lXsX5X@XoXoX#X+X{.d.a.a.",
"T.K.I.wXhXsX2X&X-X&X+X$XF.6.9.p.b.k.m.G.S.A.b.z.m.,X6X3X6X4XqXT.C.D.g.a.r.D.OX.XXX%X&X+XXX&X).8.8.8.",
"uXfXuXuX9XtX>X=X-X$X.X$X^.A.F.z.y.p.0.@.o.&.r.p.f.{.XX@X&X%X=X@X#X-XB.e.u.g.g.u.J.*X*X=XOX#X`.$.&.&.",
"yXaXaXtXuXsX>X%X;X%X@X&XE.m.S.c.q.y.8.X.&.>.p.w.d.+X&X@X;X5X:X%X+X@XA.u.t.f.c.d.U.1X-X,X*X%X`.%.%.%.",
"$X@X#X;X<X&X;X2X,X|.(. XL.c.v.M.B.n.b.t.t.t.y.i.s.Q./.^./.^./.oXoX#XC.e.a.s.f.d.M.(.(.R.T.W.G.0.8.8.",
"y.t.r.c.N.m.=XtXiX_.m.Z.k.i.r.B.&XoX#X$X=X{.q.8.8.y.e.i.w.6.5.!.#X%XC.w.s.r.7.0.2.#.O.$.=.X.2.P.Y.Y.",
"d.p.u.B.Z.N.2XpXpX^.z.V.z.y.9.D.=X*X@X@X*X[.3.9.9.t.y.t.5.q.1._.=X$XA.y.t.q.7.7.<.%.@.$.=.@.3.L.H.H.",
"a.p.h.m.m.m..X3X5X'.D.G.B.h.k.V.(.).~.'.'.Q.v.d.l.h.b.x.a.g.g.L.`.'.m.y.i.j.h.k.a.e.r.q.=.:.8.I.R.R.",
"Z.B.V.a.r.a.v.Z.n.(.$X@X}.(.'.V.+.%.2.p.e.M.qXuXwX$X#XoX#X@X+Xy.O.*.t.b.f.`.iXtXyXrXpX#Xt.u.l.#X+X+X",
"C.V.V.d.y.u.b.C.M.).#X+X}.(.{.B.@.*.1.p.t.v.rXrXqX#X+X+X+XOX$Xt.$.*.t.x.s.'.aXeXrXeXpX#Xr.u.l.@X+X+X",
"C.V.V.d.y.u.b.C.M.).#X+X}.(.{.B.@.*.1.p.t.v.rXrXqX#X+X+X+XOX$Xt.$.*.t.x.s.'.aXeXrXeXpX#Xr.u.l.@X+X+X"
};
